<svg id="svg" version="1.1" xmlns="http://www.w3.org/2000/svg" xmlns:xlink="http://www.w3.org/1999/xlink" width="26" height="26" viewBox="0, 0, 400,400"><g id="svgg"><path id="path0" d="M1.049 46.720 C 0.167 48.147,15.114 48.470,104.600 48.954 C 122.640 49.051,137.426 49.147,137.457 49.166 C 138.091 49.547,138.084 42.677,137.643 229.200 L 137.391 335.400 136.489 337.642 C 134.323 343.020,130.960 346.510,124.923 349.644 C 121.710 351.312,120.567 352.108,120.472 352.744 L 120.344 353.600 259.773 353.600 L 399.201 353.600 399.101 200.100 L 399.000 46.600 200.123 46.501 C 90.740 46.447,1.157 46.545,1.049 46.720 M281.800 71.208 C 287.300 71.429,292.700 71.782,293.800 71.994 C 294.900 72.206,298.140 72.574,301.000 72.810 C 303.860 73.047,306.740 73.420,307.400 73.639 C 308.060 73.858,309.950 74.208,311.600 74.417 C 314.484 74.781,317.047 75.315,322.200 76.625 C 323.520 76.961,325.590 77.486,326.800 77.792 C 329.587 78.497,332.655 79.495,334.200 80.199 C 334.860 80.499,335.850 80.864,336.400 81.010 C 340.816 82.178,354.153 89.611,358.000 93.049 C 359.063 93.998,364.580 99.511,365.200 100.243 C 367.069 102.449,369.593 105.851,369.596 106.169 C 369.598 106.371,369.854 106.821,370.165 107.169 C 372.868 110.188,376.765 121.479,377.590 128.679 C 378.141 133.492,378.128 186.865,377.574 191.916 C 376.966 197.461,374.825 205.482,373.199 208.307 C 372.980 208.688,372.616 209.450,372.391 210.000 C 372.165 210.550,371.542 211.720,371.005 212.600 C 370.468 213.480,369.798 214.658,369.515 215.218 C 369.232 215.778,368.774 216.498,368.497 216.818 C 368.220 217.138,367.140 218.481,366.097 219.801 C 363.176 223.500,354.895 231.200,353.839 231.200 C 353.703 231.200,352.696 231.830,351.601 232.599 C 349.245 234.255,344.503 236.781,340.600 238.458 C 339.060 239.120,337.229 239.919,336.532 240.234 C 335.834 240.549,334.664 240.918,333.932 241.053 C 331.506 241.501,331.146 242.508,332.700 244.500 C 333.305 245.275,334.021 246.245,334.291 246.655 C 334.562 247.065,335.957 249.172,337.391 251.337 C 338.826 253.502,340.000 255.424,340.000 255.608 C 340.000 255.792,340.247 256.190,340.548 256.491 C 340.850 256.792,341.395 257.570,341.760 258.220 C 342.126 258.869,342.774 259.940,343.201 260.600 C 343.628 261.260,344.349 262.430,344.804 263.200 C 345.258 263.970,346.028 265.273,346.515 266.095 C 350.037 272.042,356.799 283.893,358.102 286.400 C 358.616 287.390,360.008 290.000,361.195 292.200 C 367.178 303.288,381.708 332.600,382.528 335.236 C 383.190 337.364,381.364 337.508,349.400 337.848 C 326.266 338.093,309.161 337.667,305.600 336.757 C 304.309 336.427,304.051 336.082,302.275 332.300 C 301.217 330.045,300.177 327.930,299.964 327.600 C 299.751 327.270,299.470 326.681,299.340 326.292 C 298.815 324.725,284.521 296.682,281.962 292.200 C 281.083 290.660,279.997 288.680,279.548 287.800 C 279.100 286.920,278.305 285.480,277.783 284.600 C 277.260 283.720,276.549 282.460,276.202 281.800 C 275.855 281.140,275.129 279.880,274.589 279.000 C 274.048 278.120,273.332 276.860,272.998 276.200 C 272.664 275.540,271.402 273.398,270.195 271.441 C 268.988 269.483,268.000 267.826,268.000 267.758 C 268.000 267.691,267.547 266.953,266.993 266.118 C 265.491 263.855,264.708 262.638,261.253 257.200 C 259.370 254.234,258.958 253.619,257.684 251.863 L 256.768 250.600 241.803 250.400 C 233.573 250.290,226.464 250.290,226.007 250.400 L 225.174 250.600 225.087 293.280 C 225.021 325.593,224.885 336.075,224.525 336.435 C 222.596 338.364,153.737 338.339,151.410 336.408 C 150.576 335.716,150.467 71.401,151.300 71.065 C 152.260 70.678,271.824 70.809,281.800 71.208 M225.198 133.700 C 225.198 133.755,225.193 146.040,225.188 161.000 L 225.179 188.200 251.289 188.198 C 281.898 188.195,287.038 187.649,293.813 183.681 C 294.828 183.086,295.969 182.420,296.348 182.200 C 301.587 179.160,303.600 173.338,303.600 161.230 C 303.600 149.550,302.092 144.340,297.746 141.000 C 297.173 140.560,296.398 139.930,296.022 139.600 C 293.171 137.094,286.332 135.098,276.800 133.991 C 274.240 133.694,225.203 133.417,225.198 133.700 " stroke="none" fill="#3e3a3a" fill-rule="evenodd"></path><path id="path1" d="M0.800 50.100 C 0.800 51.098,0.939 51.203,2.300 51.234 C 3.790 51.269,3.793 51.271,2.634 51.617 C 1.993 51.809,1.316 51.872,1.131 51.757 C 0.945 51.642,0.798 115.648,0.804 193.993 C 0.811 287.045,0.951 336.354,1.207 336.195 C 1.423 336.062,1.600 336.128,1.600 336.343 C 1.600 336.558,1.375 336.824,1.100 336.935 C 0.825 337.046,1.005 337.151,1.500 337.168 C 2.221 337.194,2.400 337.433,2.400 338.367 C 2.400 339.796,2.758 340.800,3.266 340.800 C 3.476 340.800,3.520 340.575,3.365 340.300 C 3.142 339.905,3.194 339.903,3.610 340.288 C 3.899 340.557,4.151 341.457,4.168 342.288 C 4.194 343.523,4.347 343.800,5.000 343.801 C 5.440 343.801,5.800 344.066,5.800 344.389 C 5.800 344.712,6.162 345.162,6.604 345.388 C 7.047 345.615,7.404 346.070,7.398 346.400 C 7.392 346.730,7.750 347.098,8.194 347.218 C 8.637 347.338,9.000 347.698,9.000 348.018 C 9.000 348.338,9.225 348.623,9.500 348.650 C 9.775 348.678,10.180 348.723,10.400 348.750 C 10.620 348.778,10.800 349.182,10.800 349.649 C 10.800 350.396,10.881 350.432,11.477 349.949 C 11.937 349.576,12.057 349.560,11.853 349.900 C 11.639 350.256,11.904 350.400,12.776 350.400 C 13.733 350.400,14.000 350.574,14.000 351.200 C 14.000 351.717,14.267 352.000,14.753 352.000 C 15.170 352.000,15.600 352.357,15.716 352.800 C 16.036 354.025,120.000 354.070,120.000 352.845 C 120.000 352.283,121.104 351.542,124.300 349.957 C 130.942 346.664,135.185 341.988,136.963 336.001 C 137.839 333.052,137.956 50.584,137.081 49.710 C 136.655 49.283,123.965 49.169,68.679 49.093 L 0.800 49.000 0.800 50.100 M113.885 72.949 C 114.684 73.692,114.662 97.047,113.862 97.932 C 113.309 98.543,111.097 98.600,88.116 98.600 L 62.976 98.600 63.899 99.456 C 64.411 99.931,65.660 100.438,66.704 100.595 C 68.597 100.879,71.292 101.575,83.800 105.013 C 91.547 107.142,91.660 107.172,96.800 108.554 C 98.890 109.116,101.950 109.952,103.600 110.412 C 105.250 110.872,107.942 111.601,109.582 112.032 C 114.761 113.393,114.392 112.554,114.447 123.109 C 114.510 135.090,114.774 134.293,110.400 135.316 C 107.725 135.943,103.904 136.948,99.000 138.316 C 93.495 139.852,89.757 140.873,87.000 141.595 C 85.460 141.997,82.490 142.807,80.400 143.394 C 73.874 145.227,70.684 146.060,68.200 146.581 C 66.880 146.858,65.260 147.380,64.600 147.740 C 63.940 148.100,63.145 148.396,62.833 148.398 C 62.522 148.399,62.391 148.524,62.542 148.675 C 62.694 148.827,74.109 148.905,87.909 148.849 C 108.169 148.766,113.133 148.848,113.691 149.273 C 114.572 149.945,114.844 173.583,113.983 174.620 C 113.576 175.111,110.773 175.200,95.817 175.200 C 67.266 175.200,40.798 175.665,40.816 176.165 C 40.825 176.404,41.770 177.035,42.916 177.567 C 44.842 178.460,47.038 179.669,50.736 181.873 C 51.541 182.352,52.740 183.032,53.400 183.383 C 54.060 183.735,55.500 184.558,56.600 185.213 C 57.700 185.868,58.870 186.530,59.200 186.683 C 59.530 186.836,60.404 187.371,61.143 187.872 C 61.882 188.373,63.412 189.242,64.543 189.805 C 65.674 190.367,67.230 191.211,68.000 191.680 C 70.319 193.095,72.541 194.362,73.600 194.872 C 74.150 195.138,74.870 195.565,75.200 195.821 C 75.530 196.078,76.880 196.870,78.200 197.582 C 79.520 198.294,80.807 199.047,81.061 199.255 C 81.334 199.479,87.932 199.623,97.275 199.609 C 109.400 199.592,113.183 199.703,113.702 200.093 C 114.576 200.750,114.847 225.980,113.991 227.011 C 113.575 227.512,111.135 227.600,97.725 227.600 L 81.949 227.600 74.474 231.812 C 70.363 234.128,66.730 236.195,66.400 236.406 C 65.808 236.783,64.532 237.485,61.400 239.157 C 60.520 239.627,59.530 240.184,59.200 240.395 C 58.870 240.606,53.290 243.758,46.800 247.400 C 40.310 251.042,34.730 254.200,34.400 254.419 C 34.070 254.637,33.350 255.039,32.800 255.312 C 32.250 255.586,31.080 256.270,30.200 256.834 C 25.847 259.621,26.000 260.117,26.000 243.240 C 26.000 227.067,25.844 227.865,29.283 226.430 C 30.447 225.944,32.120 225.207,33.000 224.793 C 33.880 224.379,35.410 223.689,36.400 223.259 C 37.390 222.830,39.550 221.857,41.200 221.098 C 42.850 220.338,47.225 218.386,50.922 216.758 L 57.644 213.800 56.522 212.902 C 55.905 212.408,55.239 212.003,55.042 212.002 C 54.845 212.001,53.360 211.370,51.742 210.600 C 50.124 209.830,47.405 208.551,45.700 207.758 C 43.995 206.965,41.160 205.634,39.400 204.800 C 35.171 202.797,31.902 201.301,29.644 200.335 C 28.630 199.901,27.395 199.167,26.900 198.703 L 26.000 197.861 26.000 167.359 L 26.000 136.858 26.995 136.075 C 27.543 135.645,29.208 135.071,30.695 134.801 C 32.183 134.531,34.210 134.077,35.200 133.792 C 36.190 133.507,38.620 132.903,40.600 132.448 C 51.132 130.030,53.168 129.548,55.000 129.035 C 56.100 128.728,57.720 128.358,58.600 128.214 C 59.480 128.069,61.100 127.695,62.200 127.382 C 66.056 126.284,70.621 125.262,72.905 124.986 C 77.041 124.485,75.977 123.236,70.400 122.046 C 66.866 121.292,64.439 120.727,56.200 118.741 C 54.440 118.316,51.560 117.630,49.800 117.215 C 48.040 116.801,44.980 116.079,43.000 115.611 C 35.835 113.918,32.552 113.162,30.009 112.618 C 25.707 111.697,26.000 113.210,26.000 91.887 C 26.000 75.270,26.065 73.391,26.665 72.728 C 27.474 71.834,112.919 72.051,113.885 72.949 M88.200 250.073 C 97.187 252.306,107.062 259.665,110.911 267.000 C 114.133 273.139,114.988 275.496,115.991 281.015 C 119.610 300.926,110.854 320.132,94.200 328.810 C 80.828 335.779,61.815 335.984,47.600 329.313 C 46.165 328.640,42.358 326.396,42.000 326.012 C 41.890 325.894,41.050 325.289,40.133 324.668 C 38.743 323.725,34.933 319.928,33.041 317.600 C 31.994 316.312,29.535 312.342,29.017 311.104 C 28.716 310.387,28.338 309.669,28.176 309.508 C 27.731 309.065,26.488 305.444,25.325 301.200 C 22.887 292.309,24.749 272.291,28.348 268.692 C 28.597 268.443,28.800 268.061,28.800 267.842 C 28.800 266.929,33.429 260.819,35.196 259.400 C 35.743 258.960,36.469 258.325,36.808 257.988 C 37.404 257.396,40.166 255.465,41.800 254.498 C 46.494 251.720,56.978 248.817,58.884 249.767 L 59.800 250.224 59.800 262.996 L 59.800 275.769 58.800 276.264 C 58.250 276.536,56.755 277.166,55.478 277.662 C 45.493 281.546,44.098 295.874,53.122 301.863 C 57.779 304.954,62.773 306.143,71.000 306.118 C 86.192 306.072,93.986 300.704,93.996 290.278 C 94.003 283.192,91.369 279.814,83.916 277.349 C 82.092 276.746,80.375 276.084,80.100 275.877 C 79.542 275.459,79.357 250.581,79.906 249.760 C 80.648 248.649,82.794 248.730,88.200 250.073 " stroke="none" fill="#932dd0" fill-rule="evenodd"></path><path id="path2" d="M152.501 72.329 C 151.698 72.839,151.769 334.741,152.573 335.544 C 153.825 336.796,222.845 336.805,223.638 335.553 C 223.832 335.246,223.990 316.040,223.994 292.380 C 223.999 259.771,224.113 249.647,224.480 249.280 C 224.837 248.923,229.022 248.800,240.839 248.800 L 256.717 248.800 257.959 250.214 C 258.641 250.992,259.200 251.892,259.200 252.214 C 259.200 252.536,259.389 252.800,259.621 252.800 C 259.852 252.800,260.230 253.340,260.460 254.000 C 260.690 254.660,261.045 255.200,261.248 255.200 C 261.451 255.200,261.835 255.695,262.102 256.300 C 262.368 256.905,263.264 258.390,264.092 259.600 C 264.921 260.810,265.599 262.025,265.599 262.300 C 265.600 262.575,265.763 262.800,265.962 262.800 C 266.161 262.800,266.834 263.655,267.457 264.700 C 268.080 265.745,268.772 266.902,268.995 267.271 C 269.218 267.640,270.076 269.080,270.902 270.471 C 271.728 271.862,272.854 273.720,273.404 274.600 C 273.955 275.480,274.694 276.830,275.048 277.600 C 275.401 278.370,275.822 279.090,275.983 279.200 C 276.300 279.416,277.186 280.987,278.215 283.158 C 278.570 283.905,279.116 284.773,279.430 285.087 C 279.743 285.401,280.000 285.982,280.000 286.380 C 280.000 286.777,280.280 287.335,280.623 287.619 C 280.966 287.904,281.502 288.691,281.815 289.368 C 282.128 290.046,282.568 290.870,282.792 291.200 C 283.017 291.530,283.390 292.250,283.621 292.800 C 283.852 293.350,284.478 294.520,285.011 295.400 C 285.545 296.280,286.171 297.450,286.402 298.000 C 286.999 299.416,287.102 299.613,288.187 301.400 C 288.722 302.280,289.348 303.450,289.579 304.000 C 289.810 304.550,290.180 305.270,290.401 305.600 C 290.621 305.930,290.981 306.650,291.201 307.200 C 291.420 307.750,291.781 308.470,292.003 308.800 C 292.224 309.130,292.604 309.850,292.846 310.400 C 293.088 310.950,293.448 311.670,293.646 312.000 C 293.844 312.330,294.204 313.050,294.446 313.600 C 294.688 314.150,295.048 314.870,295.246 315.200 C 295.444 315.530,295.804 316.250,296.046 316.800 C 296.288 317.350,296.648 318.070,296.846 318.400 C 297.044 318.730,297.404 319.450,297.646 320.000 C 297.888 320.550,298.247 321.270,298.445 321.600 C 298.643 321.930,298.913 322.470,299.045 322.800 C 299.177 323.130,300.053 325.020,300.992 327.000 C 301.930 328.980,302.910 331.050,303.169 331.600 C 305.172 335.858,305.137 335.839,311.369 336.161 C 318.216 336.514,368.551 336.511,375.908 336.158 C 381.641 335.882,382.854 335.344,380.778 333.996 C 380.605 333.884,380.341 333.306,380.192 332.712 C 380.043 332.119,379.669 331.423,379.361 331.167 C 379.052 330.911,378.800 330.499,378.800 330.251 C 378.800 330.003,378.011 328.180,377.047 326.200 C 376.083 324.220,374.727 321.430,374.033 320.000 C 373.340 318.570,372.617 317.130,372.427 316.800 C 371.320 314.878,366.799 305.318,366.800 304.900 C 366.800 304.625,366.640 304.400,366.443 304.400 C 366.247 304.400,365.796 303.725,365.441 302.900 C 365.087 302.075,364.617 301.130,364.398 300.800 C 364.179 300.470,363.820 299.750,363.601 299.200 C 363.381 298.650,363.021 297.930,362.801 297.600 C 362.580 297.270,362.210 296.550,361.979 296.000 C 361.748 295.450,361.122 294.280,360.589 293.400 C 360.055 292.520,359.429 291.350,359.198 290.800 C 358.648 289.497,358.541 289.294,357.389 287.400 C 356.854 286.520,356.194 285.350,355.924 284.800 C 355.653 284.250,355.110 283.371,354.716 282.846 C 354.322 282.321,354.000 281.565,354.000 281.166 C 354.000 280.767,353.749 280.296,353.443 280.120 C 353.137 279.944,352.600 279.170,352.251 278.400 C 351.602 276.968,351.174 276.221,349.916 274.316 C 349.522 273.720,349.200 272.949,349.200 272.604 C 349.200 272.258,348.943 271.876,348.628 271.755 C 348.313 271.635,347.886 271.055,347.678 270.468 C 347.470 269.881,346.648 268.414,345.850 267.209 C 345.053 266.004,344.400 264.817,344.400 264.571 C 344.400 264.325,344.045 263.802,343.610 263.409 C 343.176 263.016,342.704 262.327,342.561 261.878 C 342.419 261.429,342.142 260.868,341.945 260.631 C 341.117 259.631,339.660 257.220,339.413 256.441 C 339.266 255.979,338.974 255.600,338.763 255.600 C 338.553 255.600,338.225 255.191,338.034 254.690 C 337.617 253.593,331.853 244.960,330.712 243.722 C 329.421 242.323,330.006 240.930,332.104 240.403 C 333.037 240.169,334.250 239.735,334.800 239.440 C 335.350 239.145,336.475 238.782,337.300 238.634 C 338.125 238.485,338.800 238.199,338.800 237.998 C 338.800 237.797,339.565 237.414,340.500 237.147 C 341.435 236.880,342.470 236.444,342.800 236.178 C 343.130 235.912,343.847 235.558,344.392 235.391 C 344.938 235.224,345.838 234.791,346.392 234.428 C 348.213 233.235,348.984 232.791,350.232 232.215 C 350.909 231.902,351.696 231.366,351.981 231.023 C 352.265 230.680,352.675 230.400,352.892 230.400 C 354.483 230.400,367.200 217.996,367.200 216.444 C 367.200 216.186,367.454 215.878,367.764 215.759 C 368.074 215.639,368.434 215.118,368.565 214.599 C 368.695 214.080,369.031 213.418,369.313 213.128 C 369.783 212.642,370.410 211.407,372.747 206.356 C 373.216 205.342,373.600 204.224,373.600 203.871 C 373.600 203.518,373.934 202.368,374.343 201.315 C 374.752 200.262,375.203 198.370,375.345 197.111 C 375.488 195.852,375.873 193.789,376.202 192.527 C 377.061 189.229,377.097 132.127,376.241 128.784 C 375.934 127.583,375.562 125.610,375.415 124.400 C 375.126 122.034,373.937 118.012,372.740 115.356 C 372.333 114.452,371.988 113.462,371.973 113.156 C 371.959 112.850,371.417 111.700,370.770 110.600 C 370.123 109.500,369.317 108.060,368.979 107.400 C 367.477 104.463,359.183 94.800,358.165 94.800 C 357.970 94.800,354.371 92.064,352.795 90.717 C 352.461 90.433,351.741 89.966,351.195 89.681 C 350.648 89.395,349.480 88.724,348.600 88.190 C 347.720 87.656,346.550 87.035,346.000 86.810 C 345.450 86.585,344.730 86.215,344.400 85.989 C 344.070 85.762,343.460 85.464,343.045 85.327 C 342.629 85.190,341.495 84.655,340.523 84.139 C 339.552 83.622,338.497 83.200,338.177 83.200 C 337.858 83.200,336.925 82.840,336.104 82.400 C 335.284 81.960,334.339 81.594,334.006 81.586 C 333.673 81.579,332.680 81.225,331.800 80.800 C 330.920 80.375,329.811 80.021,329.336 80.014 C 328.860 80.006,327.510 79.660,326.336 79.244 C 325.161 78.828,323.300 78.305,322.200 78.081 C 321.100 77.857,319.480 77.491,318.600 77.267 C 315.860 76.570,309.975 75.518,305.800 74.977 C 303.600 74.693,300.630 74.271,299.200 74.041 C 297.770 73.811,293.180 73.433,289.000 73.201 C 284.820 72.969,279.510 72.612,277.200 72.407 C 272.089 71.954,153.209 71.879,152.501 72.329 M27.824 73.561 C 27.235 74.515,27.538 110.109,28.141 110.712 C 28.657 111.228,30.285 111.661,37.600 113.226 C 38.810 113.485,40.955 114.035,42.367 114.448 C 43.779 114.862,45.343 115.200,45.841 115.200 C 46.340 115.200,47.255 115.405,47.874 115.656 C 48.493 115.906,50.530 116.437,52.400 116.836 C 54.270 117.234,57.330 117.941,59.200 118.406 C 61.070 118.872,64.040 119.570,65.800 119.958 C 67.560 120.346,69.630 120.859,70.400 121.097 C 71.170 121.336,72.776 121.646,73.969 121.788 C 79.007 122.387,79.391 124.821,74.563 125.552 C 71.955 125.947,67.684 126.920,64.600 127.821 C 62.523 128.428,58.866 129.270,54.400 130.169 C 52.970 130.457,50.900 130.966,49.800 131.301 C 48.700 131.636,46.855 132.111,45.700 132.355 C 44.545 132.600,42.655 133.000,41.500 133.244 C 40.345 133.489,38.680 133.929,37.800 134.223 C 36.920 134.517,35.060 134.958,33.667 135.202 C 31.306 135.617,30.202 135.953,28.200 136.864 C 27.409 137.224,27.401 137.562,27.510 167.507 L 27.620 197.786 28.710 198.678 C 29.309 199.169,30.015 199.578,30.279 199.586 C 30.542 199.594,31.552 200.022,32.523 200.539 C 33.495 201.055,34.629 201.590,35.045 201.727 C 35.460 201.864,36.070 202.134,36.400 202.326 C 36.730 202.517,37.810 203.046,38.800 203.499 C 41.794 204.872,48.404 207.992,51.800 209.636 C 53.560 210.488,55.498 211.299,56.106 211.437 C 57.299 211.710,58.934 213.459,58.561 214.063 C 58.354 214.397,56.050 215.534,51.300 217.645 C 50.365 218.060,48.790 218.760,47.800 219.200 C 46.810 219.640,45.145 220.376,44.100 220.835 C 43.055 221.294,41.545 222.014,40.746 222.435 C 39.946 222.856,39.023 223.200,38.695 223.200 C 38.366 223.200,37.889 223.452,37.633 223.761 C 37.377 224.069,36.680 224.442,36.084 224.590 C 34.176 225.062,27.600 228.408,27.586 228.913 C 27.579 229.181,27.534 235.473,27.486 242.896 C 27.392 257.573,27.393 257.577,29.556 256.111 C 30.130 255.721,31.050 255.171,31.600 254.887 C 32.150 254.603,33.320 253.938,34.200 253.410 C 35.080 252.881,37.057 251.787,38.593 250.978 C 40.129 250.168,42.337 248.897,43.500 248.153 C 44.664 247.409,45.871 246.800,46.184 246.800 C 46.497 246.800,46.850 246.642,46.970 246.449 C 47.089 246.256,48.855 245.170,50.893 244.036 C 52.932 242.902,54.870 241.797,55.200 241.582 C 55.530 241.366,56.520 240.830,57.400 240.389 C 58.280 239.949,59.720 239.153,60.600 238.622 C 61.480 238.090,62.740 237.374,63.400 237.031 C 64.060 236.688,65.590 235.839,66.800 235.144 C 70.095 233.252,73.650 231.267,75.000 230.567 C 75.660 230.225,76.920 229.509,77.800 228.975 C 81.942 226.465,80.819 226.600,97.600 226.600 C 107.404 226.600,113.107 226.455,113.294 226.200 C 113.456 225.980,113.588 220.310,113.588 213.600 C 113.588 206.890,113.456 201.220,113.294 201.000 C 113.107 200.745,107.265 200.600,97.182 200.600 C 82.035 200.600,81.314 200.566,80.182 199.801 C 79.532 199.362,78.550 198.771,78.000 198.487 C 77.450 198.203,76.280 197.529,75.400 196.988 C 74.520 196.448,73.260 195.727,72.600 195.387 C 71.940 195.046,70.680 194.331,69.800 193.798 C 68.920 193.265,67.660 192.539,67.000 192.187 C 66.340 191.834,65.080 191.109,64.200 190.575 C 63.320 190.042,62.060 189.322,61.400 188.975 C 60.740 188.629,59.480 187.909,58.600 187.375 C 57.720 186.842,56.460 186.122,55.800 185.775 C 55.140 185.429,53.880 184.709,53.000 184.175 C 52.120 183.642,50.860 182.922,50.200 182.575 C 49.540 182.229,48.280 181.510,47.400 180.978 C 46.520 180.447,45.080 179.651,44.200 179.211 C 43.320 178.770,42.330 178.237,42.000 178.026 C 41.670 177.814,40.860 177.405,40.200 177.115 C 39.252 176.700,39.000 176.338,39.000 175.395 L 39.000 174.200 75.800 174.084 C 96.040 174.020,112.825 173.891,113.100 173.797 C 113.485 173.665,113.600 170.904,113.600 161.813 L 113.600 150.000 87.426 150.000 C 62.566 150.000,59.200 149.865,59.200 148.870 C 59.200 148.341,63.954 146.454,66.000 146.170 C 66.990 146.033,68.880 145.599,70.200 145.206 C 72.601 144.491,74.511 143.974,77.700 143.173 C 78.635 142.939,80.480 142.414,81.800 142.006 C 83.120 141.599,84.867 141.154,85.683 141.018 C 86.499 140.882,87.669 140.508,88.283 140.188 C 88.897 139.867,89.888 139.604,90.485 139.602 C 91.082 139.601,92.484 139.240,93.600 138.800 C 94.716 138.360,95.938 138.003,96.315 138.006 C 96.952 138.011,99.006 137.434,105.017 135.561 C 106.347 135.146,108.272 134.693,109.296 134.552 C 110.320 134.412,111.710 133.961,112.386 133.550 L 113.615 132.803 113.507 123.583 L 113.400 114.364 110.600 113.384 C 109.060 112.845,107.350 112.402,106.800 112.399 C 106.250 112.397,105.297 112.133,104.682 111.812 C 104.067 111.491,102.447 111.026,101.082 110.779 C 99.717 110.532,98.420 110.182,98.200 110.002 C 97.980 109.821,96.764 109.483,95.499 109.250 C 94.233 109.017,92.861 108.647,92.450 108.427 C 92.039 108.207,90.554 107.764,89.151 107.444 C 85.952 106.714,83.510 106.065,81.200 105.332 C 80.210 105.018,78.410 104.514,77.200 104.211 C 73.905 103.387,71.624 102.769,69.400 102.099 C 68.300 101.767,66.100 101.265,64.511 100.983 C 61.816 100.505,59.200 99.223,59.200 98.380 C 59.200 97.596,62.112 97.500,87.324 97.451 L 113.400 97.400 113.400 85.400 L 113.400 73.400 70.741 73.272 C 41.405 73.183,28.002 73.273,27.824 73.561 M275.093 132.615 C 279.865 132.968,283.996 133.470,284.800 133.794 C 285.570 134.104,287.010 134.475,288.000 134.618 C 288.990 134.760,290.160 135.102,290.600 135.378 C 291.040 135.653,292.075 136.100,292.900 136.370 C 293.725 136.641,294.400 137.016,294.400 137.204 C 294.400 137.392,294.802 137.674,295.294 137.830 C 297.530 138.539,301.948 143.359,302.894 146.119 C 303.135 146.824,303.618 147.842,303.966 148.382 C 304.915 149.852,304.915 172.148,303.966 173.618 C 303.618 174.158,303.135 175.176,302.894 175.881 C 301.948 178.641,297.530 183.461,295.294 184.170 C 294.802 184.326,294.400 184.608,294.400 184.796 C 294.400 184.984,293.725 185.359,292.900 185.630 C 292.075 185.900,291.040 186.350,290.600 186.629 C 290.160 186.909,288.900 187.264,287.800 187.419 C 286.700 187.574,285.560 187.893,285.267 188.127 C 283.322 189.681,226.392 190.840,224.755 189.359 C 223.656 188.365,223.567 133.941,224.662 132.731 C 225.572 131.726,261.951 131.642,275.093 132.615 M81.233 250.466 C 80.414 250.769,80.400 250.981,80.400 262.725 C 80.400 275.835,80.431 276.000,82.847 276.000 C 83.388 276.000,84.498 276.340,85.314 276.756 C 86.130 277.172,87.204 277.617,87.699 277.745 C 90.550 278.480,94.269 283.488,94.846 287.369 C 96.528 298.675,89.157 305.816,74.400 307.177 C 68.580 307.714,59.272 306.536,57.054 304.983 C 56.596 304.662,55.924 304.400,55.559 304.400 C 54.063 304.400,49.528 300.240,47.711 297.200 C 45.637 293.732,45.835 285.890,48.075 282.731 C 49.415 280.842,52.765 277.600,53.378 277.600 C 53.666 277.600,54.114 277.344,54.374 277.031 C 54.634 276.718,55.558 276.342,56.428 276.195 C 58.774 275.799,58.800 275.652,58.800 262.653 C 58.800 249.316,59.001 250.060,55.577 250.757 C 52.462 251.392,47.502 252.784,47.043 253.152 C 46.799 253.348,46.017 253.632,45.305 253.785 C 44.592 253.937,43.895 254.246,43.756 254.472 C 43.616 254.697,42.939 255.124,42.251 255.421 C 26.249 262.317,19.966 290.848,30.023 310.943 C 30.918 312.730,31.909 314.478,32.225 314.827 C 32.541 315.177,32.800 315.614,32.800 315.798 C 32.800 316.213,33.147 316.600,37.181 320.687 C 43.996 327.591,52.277 331.404,63.600 332.853 C 67.888 333.402,78.311 333.048,81.000 332.263 C 82.100 331.942,83.720 331.562,84.600 331.418 C 90.362 330.480,100.290 324.882,104.389 320.260 C 104.945 319.632,105.670 318.816,106.000 318.446 C 107.127 317.181,109.830 313.002,110.364 311.700 C 110.657 310.985,111.036 310.400,111.205 310.400 C 111.375 310.400,111.637 309.905,111.787 309.300 C 111.938 308.695,112.317 307.660,112.628 307.000 C 113.277 305.625,114.252 302.316,114.867 299.400 C 115.428 296.738,115.437 282.288,114.878 280.000 C 114.043 276.575,113.202 273.795,112.641 272.600 C 112.331 271.940,111.876 270.950,111.631 270.400 C 111.385 269.850,110.746 268.680,110.211 267.800 C 109.676 266.920,109.007 265.764,108.723 265.230 C 107.673 263.253,102.469 257.813,101.000 257.155 C 100.560 256.958,99.390 256.179,98.400 255.425 C 97.410 254.670,96.366 254.041,96.079 254.027 C 95.793 254.012,94.893 253.657,94.079 253.237 C 90.057 251.163,83.293 249.704,81.233 250.466 " stroke="none" fill="#f4f4f4" fill-rule="evenodd"></path><path id="path3" d="M1.030 51.590 C 1.271 51.831,1.873 51.844,2.610 51.624 C 3.786 51.273,3.781 51.268,2.220 51.234 C 1.195 51.212,0.777 51.337,1.030 51.590 M151.690 72.500 C 151.531 72.995,151.491 132.080,151.602 203.800 L 151.804 334.200 151.902 203.343 C 151.991 84.444,152.058 72.463,152.633 72.243 C 153.672 71.844,272.619 72.001,277.200 72.407 C 279.510 72.612,284.820 72.969,289.000 73.201 C 293.180 73.433,297.770 73.811,299.200 74.041 C 300.630 74.271,303.600 74.693,305.800 74.977 C 309.975 75.518,315.860 76.570,318.600 77.267 C 319.480 77.491,321.100 77.857,322.200 78.081 C 323.300 78.305,325.161 78.828,326.336 79.244 C 327.510 79.660,328.860 80.006,329.336 80.014 C 329.811 80.021,330.920 80.375,331.800 80.800 C 332.680 81.225,333.673 81.579,334.006 81.586 C 334.339 81.594,335.284 81.960,336.104 82.400 C 336.925 82.840,337.858 83.200,338.177 83.200 C 338.497 83.200,339.552 83.622,340.523 84.139 C 341.495 84.655,342.629 85.190,343.045 85.327 C 343.460 85.464,344.070 85.762,344.400 85.989 C 344.730 86.215,345.450 86.585,346.000 86.810 C 346.550 87.035,347.720 87.656,348.600 88.190 C 349.480 88.724,350.648 89.395,351.195 89.681 C 351.741 89.966,352.461 90.433,352.795 90.717 C 354.371 92.064,357.970 94.800,358.165 94.800 C 359.183 94.800,367.477 104.463,368.979 107.400 C 369.317 108.060,370.123 109.500,370.770 110.600 C 371.417 111.700,371.959 112.850,371.973 113.156 C 371.988 113.462,372.333 114.452,372.740 115.356 C 373.937 118.012,375.126 122.034,375.415 124.400 C 375.562 125.610,375.934 127.583,376.241 128.784 C 377.097 132.127,377.061 189.229,376.202 192.527 C 375.873 193.789,375.488 195.852,375.345 197.111 C 375.203 198.370,374.752 200.262,374.343 201.315 C 373.934 202.368,373.600 203.518,373.600 203.871 C 373.600 204.224,373.216 205.342,372.747 206.356 C 370.410 211.407,369.783 212.642,369.313 213.128 C 369.031 213.418,368.695 214.080,368.565 214.599 C 368.434 215.118,368.074 215.639,367.764 215.759 C 367.454 215.878,367.200 216.186,367.200 216.444 C 367.200 217.996,354.483 230.400,352.892 230.400 C 352.675 230.400,352.265 230.680,351.981 231.023 C 351.696 231.366,350.909 231.902,350.232 232.215 C 348.984 232.791,348.213 233.235,346.392 234.428 C 345.838 234.791,344.938 235.224,344.392 235.391 C 343.847 235.558,343.130 235.912,342.800 236.178 C 342.470 236.444,341.435 236.880,340.500 237.147 C 339.565 237.414,338.800 237.797,338.800 237.998 C 338.800 238.199,338.125 238.485,337.300 238.634 C 336.475 238.782,335.350 239.145,334.800 239.440 C 334.250 239.735,333.037 240.169,332.104 240.403 C 330.006 240.930,329.421 242.323,330.712 243.722 C 331.853 244.960,337.617 253.593,338.034 254.690 C 338.225 255.191,338.553 255.600,338.763 255.600 C 338.974 255.600,339.266 255.979,339.413 256.441 C 339.660 257.220,341.117 259.631,341.945 260.631 C 342.142 260.868,342.419 261.429,342.561 261.878 C 342.704 262.327,343.176 263.016,343.610 263.409 C 344.045 263.802,344.400 264.325,344.400 264.571 C 344.400 264.817,345.053 266.004,345.850 267.209 C 346.648 268.414,347.470 269.881,347.678 270.468 C 347.886 271.055,348.313 271.635,348.628 271.755 C 348.943 271.876,349.200 272.258,349.200 272.604 C 349.200 272.949,349.522 273.720,349.916 274.316 C 351.174 276.221,351.602 276.968,352.251 278.400 C 352.600 279.170,353.137 279.944,353.443 280.120 C 353.749 280.296,354.000 280.767,354.000 281.166 C 354.000 281.565,354.322 282.321,354.716 282.846 C 355.110 283.371,355.653 284.250,355.924 284.800 C 356.194 285.350,356.853 286.520,357.387 287.400 C 357.922 288.280,358.553 289.450,358.791 290.000 C 359.419 291.451,359.517 291.637,360.587 293.400 C 361.122 294.280,361.748 295.450,361.979 296.000 C 362.210 296.550,362.580 297.270,362.801 297.600 C 363.021 297.930,363.381 298.650,363.601 299.200 C 363.820 299.750,364.179 300.470,364.398 300.800 C 364.617 301.130,365.087 302.075,365.441 302.900 C 365.796 303.725,366.247 304.400,366.443 304.400 C 366.640 304.400,366.800 304.625,366.800 304.900 C 366.799 305.318,371.320 314.878,372.427 316.800 C 372.617 317.130,373.340 318.570,374.033 320.000 C 374.727 321.430,376.083 324.220,377.047 326.200 C 378.011 328.180,378.800 330.003,378.800 330.251 C 378.800 330.499,379.052 330.911,379.361 331.167 C 379.669 331.423,380.043 332.119,380.192 332.712 C 380.341 333.306,380.605 333.884,380.778 333.996 C 382.854 335.344,381.641 335.882,375.908 336.158 C 368.551 336.511,318.216 336.514,311.369 336.161 C 305.137 335.839,305.172 335.858,303.169 331.600 C 302.910 331.050,301.895 328.890,300.913 326.800 C 299.930 324.710,298.962 322.730,298.761 322.400 C 298.560 322.070,298.291 321.530,298.165 321.200 C 297.799 320.245,297.236 319.050,296.846 318.400 C 296.648 318.070,296.288 317.350,296.046 316.800 C 295.804 316.250,295.444 315.530,295.246 315.200 C 295.048 314.870,294.688 314.150,294.446 313.600 C 294.204 313.050,293.844 312.330,293.646 312.000 C 293.448 311.670,293.088 310.950,292.846 310.400 C 292.604 309.850,292.224 309.130,292.003 308.800 C 291.781 308.470,291.420 307.750,291.201 307.200 C 290.981 306.650,290.621 305.930,290.401 305.600 C 290.180 305.270,289.810 304.550,289.579 304.000 C 289.348 303.450,288.722 302.280,288.189 301.400 C 287.655 300.520,287.029 299.350,286.798 298.800 C 286.201 297.384,286.098 297.187,285.013 295.400 C 284.478 294.520,283.852 293.350,283.621 292.800 C 283.390 292.250,283.017 291.530,282.792 291.200 C 282.568 290.870,282.128 290.046,281.815 289.368 C 281.502 288.691,280.949 287.889,280.585 287.588 C 280.215 287.280,280.469 287.999,281.163 289.219 C 281.844 290.419,282.757 292.120,283.191 293.000 C 283.625 293.880,285.056 296.580,286.371 299.000 C 288.935 303.720,298.425 322.674,301.192 328.600 C 302.116 330.580,303.033 332.470,303.230 332.800 C 303.427 333.130,303.844 333.968,304.158 334.661 C 304.471 335.355,305.058 336.025,305.463 336.150 C 309.912 337.524,380.341 337.410,381.731 336.027 C 382.053 335.707,381.318 333.985,377.111 325.200 C 371.522 313.532,357.918 286.868,356.805 285.400 C 356.638 285.180,355.818 283.740,354.983 282.200 C 354.148 280.660,353.045 278.680,352.533 277.800 C 352.020 276.920,351.319 275.660,350.976 275.000 C 350.633 274.340,350.134 273.440,349.867 273.000 C 349.082 271.703,345.468 265.638,344.600 264.160 C 342.918 261.295,338.639 254.551,335.538 249.876 C 334.252 247.938,333.200 246.211,333.200 246.038 C 333.200 245.865,332.823 245.383,332.363 244.966 C 330.349 243.144,330.582 241.104,332.856 240.649 C 336.986 239.823,352.046 232.379,354.400 230.000 C 354.510 229.889,355.590 229.046,356.801 228.127 C 366.626 220.667,373.169 210.033,376.077 196.800 C 377.494 190.352,377.525 131.015,376.115 124.532 C 374.445 116.854,371.278 109.336,367.633 104.400 C 367.065 103.631,366.420 102.758,366.200 102.462 C 361.801 96.540,348.393 86.326,342.740 84.591 C 342.223 84.432,341.620 84.163,341.400 83.993 C 341.055 83.727,338.451 82.698,332.800 80.597 C 329.140 79.235,322.928 77.577,315.600 76.005 C 308.501 74.483,294.402 72.835,281.426 72.011 C 277.530 71.764,250.782 71.603,213.490 71.602 L 151.980 71.600 151.690 72.500 M26.665 72.728 C 26.065 73.391,26.000 75.270,26.000 91.887 C 26.000 113.210,25.707 111.697,30.009 112.618 C 32.552 113.162,35.835 113.918,43.000 115.611 C 44.980 116.079,48.040 116.801,49.800 117.215 C 51.560 117.630,54.440 118.316,56.200 118.741 C 64.439 120.727,66.866 121.292,70.400 122.046 C 75.977 123.236,77.041 124.485,72.905 124.986 C 70.621 125.262,66.056 126.284,62.200 127.382 C 61.100 127.695,59.480 128.069,58.600 128.214 C 57.720 128.358,56.100 128.728,55.000 129.035 C 53.168 129.548,51.132 130.030,40.600 132.448 C 38.620 132.903,36.190 133.507,35.200 133.792 C 34.210 134.077,32.183 134.531,30.695 134.801 C 29.208 135.071,27.543 135.645,26.995 136.075 L 26.000 136.858 26.000 167.359 L 26.000 197.861 26.900 198.703 C 27.395 199.167,28.630 199.901,29.644 200.335 C 31.902 201.301,35.171 202.797,39.400 204.800 C 41.160 205.634,43.995 206.965,45.700 207.758 C 47.405 208.551,50.124 209.830,51.742 210.600 C 53.360 211.370,54.845 212.001,55.042 212.002 C 55.239 212.003,55.905 212.408,56.522 212.902 L 57.644 213.800 50.922 216.758 C 47.225 218.386,42.850 220.338,41.200 221.098 C 39.550 221.857,37.390 222.830,36.400 223.259 C 35.410 223.689,33.880 224.379,33.000 224.793 C 32.120 225.207,30.447 225.944,29.283 226.430 C 25.844 227.865,26.000 227.067,26.000 243.240 C 26.000 260.117,25.847 259.621,30.200 256.834 C 31.080 256.270,32.250 255.586,32.800 255.312 C 33.350 255.039,34.070 254.637,34.400 254.419 C 34.730 254.200,40.310 251.042,46.800 247.400 C 53.290 243.758,58.870 240.606,59.200 240.395 C 59.530 240.184,60.520 239.627,61.400 239.157 C 64.532 237.485,65.808 236.783,66.400 236.406 C 66.730 236.195,70.363 234.128,74.474 231.812 L 81.949 227.600 97.725 227.600 C 111.135 227.600,113.575 227.512,113.991 227.011 C 114.847 225.980,114.576 200.750,113.702 200.093 C 113.183 199.703,109.400 199.592,97.275 199.609 C 87.932 199.623,81.334 199.479,81.061 199.255 C 80.807 199.047,79.520 198.294,78.200 197.582 C 76.880 196.870,75.530 196.078,75.200 195.821 C 74.870 195.565,74.150 195.138,73.600 194.872 C 72.541 194.362,70.319 193.095,68.000 191.680 C 67.230 191.211,65.674 190.367,64.543 189.805 C 63.412 189.242,61.882 188.373,61.143 187.872 C 60.404 187.371,59.530 186.836,59.200 186.683 C 58.870 186.530,57.700 185.868,56.600 185.213 C 55.500 184.558,54.060 183.735,53.400 183.383 C 52.740 183.032,51.541 182.352,50.736 181.873 C 47.038 179.669,44.842 178.460,42.916 177.567 C 41.770 177.035,40.825 176.404,40.816 176.165 C 40.798 175.665,67.266 175.200,95.817 175.200 C 110.773 175.200,113.576 175.111,113.983 174.620 C 114.844 173.583,114.572 149.945,113.691 149.273 C 113.133 148.848,108.169 148.766,87.909 148.849 C 74.109 148.905,62.694 148.827,62.542 148.675 C 62.391 148.524,62.522 148.399,62.833 148.398 C 63.145 148.396,63.940 148.100,64.600 147.740 C 65.260 147.380,66.880 146.858,68.200 146.581 C 70.684 146.060,73.874 145.227,80.400 143.394 C 82.490 142.807,85.460 141.997,87.000 141.595 C 89.757 140.873,93.495 139.852,99.000 138.316 C 103.904 136.948,107.725 135.943,110.400 135.316 C 114.774 134.293,114.510 135.090,114.447 123.109 C 114.392 112.554,114.761 113.393,109.582 112.032 C 107.942 111.601,105.250 110.872,103.600 110.412 C 101.950 109.952,98.890 109.116,96.800 108.554 C 91.660 107.172,91.547 107.142,83.800 105.013 C 71.292 101.575,68.597 100.879,66.704 100.595 C 65.660 100.438,64.411 99.931,63.899 99.456 L 62.976 98.600 88.116 98.600 C 111.097 98.600,113.309 98.543,113.862 97.932 C 114.662 97.047,114.684 73.692,113.885 72.949 C 112.919 72.051,27.474 71.834,26.665 72.728 M113.400 85.400 L 113.400 97.400 87.324 97.451 C 62.112 97.500,59.200 97.596,59.200 98.380 C 59.200 99.223,61.816 100.505,64.511 100.983 C 66.100 101.265,68.300 101.767,69.400 102.099 C 71.624 102.769,73.905 103.387,77.200 104.211 C 78.410 104.514,80.210 105.018,81.200 105.332 C 83.510 106.065,85.952 106.714,89.151 107.444 C 90.554 107.764,92.039 108.207,92.450 108.427 C 92.861 108.647,94.233 109.017,95.499 109.250 C 96.764 109.483,97.980 109.821,98.200 110.002 C 98.420 110.182,99.717 110.532,101.082 110.779 C 102.447 111.026,104.067 111.491,104.682 111.812 C 105.297 112.133,106.250 112.397,106.800 112.399 C 107.350 112.402,109.060 112.845,110.600 113.384 L 113.400 114.364 113.507 123.583 L 113.615 132.803 112.386 133.550 C 111.710 133.961,110.320 134.412,109.296 134.552 C 108.272 134.693,106.347 135.146,105.017 135.561 C 99.006 137.434,96.952 138.011,96.315 138.006 C 95.938 138.003,94.716 138.360,93.600 138.800 C 92.484 139.240,91.082 139.601,90.485 139.602 C 89.888 139.604,88.897 139.867,88.283 140.188 C 87.669 140.508,86.499 140.882,85.683 141.018 C 84.867 141.154,83.120 141.599,81.800 142.006 C 80.480 142.414,78.635 142.939,77.700 143.173 C 74.511 143.974,72.601 144.491,70.200 145.206 C 68.880 145.599,66.990 146.033,66.000 146.170 C 63.954 146.454,59.200 148.341,59.200 148.870 C 59.200 149.865,62.566 150.000,87.426 150.000 L 113.600 150.000 113.600 161.813 C 113.600 170.904,113.485 173.665,113.100 173.797 C 112.825 173.891,96.040 174.020,75.800 174.084 L 39.000 174.200 39.000 175.395 C 39.000 176.338,39.252 176.700,40.200 177.115 C 40.860 177.405,41.670 177.814,42.000 178.026 C 42.330 178.237,43.320 178.770,44.200 179.211 C 45.080 179.651,46.520 180.447,47.400 180.978 C 48.280 181.510,49.540 182.229,50.200 182.575 C 50.860 182.922,52.120 183.642,53.000 184.175 C 53.880 184.709,55.140 185.429,55.800 185.775 C 56.460 186.122,57.720 186.842,58.600 187.375 C 59.480 187.909,60.740 188.629,61.400 188.975 C 62.060 189.322,63.320 190.042,64.200 190.575 C 65.080 191.109,66.340 191.834,67.000 192.187 C 67.660 192.539,68.920 193.265,69.800 193.798 C 70.680 194.331,71.940 195.046,72.600 195.387 C 73.260 195.727,74.520 196.448,75.400 196.988 C 76.280 197.529,77.450 198.203,78.000 198.487 C 78.550 198.771,79.532 199.362,80.182 199.801 C 81.314 200.566,82.035 200.600,97.182 200.600 C 107.265 200.600,113.107 200.745,113.294 201.000 C 113.456 201.220,113.588 206.890,113.588 213.600 C 113.588 220.310,113.456 225.980,113.294 226.200 C 113.107 226.455,107.404 226.600,97.600 226.600 C 80.819 226.600,81.942 226.465,77.800 228.975 C 76.920 229.509,75.660 230.225,75.000 230.567 C 73.650 231.267,70.095 233.252,66.800 235.144 C 65.590 235.839,64.060 236.688,63.400 237.031 C 62.740 237.374,61.480 238.090,60.600 238.622 C 59.720 239.153,58.280 239.949,57.400 240.389 C 56.520 240.830,55.530 241.366,55.200 241.582 C 54.870 241.797,52.932 242.902,50.893 244.036 C 48.855 245.170,47.089 246.256,46.970 246.449 C 46.850 246.642,46.497 246.800,46.184 246.800 C 45.871 246.800,44.664 247.409,43.500 248.153 C 42.337 248.897,40.129 250.168,38.593 250.978 C 37.057 251.787,35.080 252.881,34.200 253.410 C 33.320 253.938,32.150 254.603,31.600 254.887 C 31.050 255.171,30.130 255.721,29.556 256.111 C 27.393 257.577,27.392 257.573,27.486 242.896 C 27.534 235.473,27.579 229.181,27.586 228.913 C 27.600 228.408,34.176 225.062,36.084 224.590 C 36.680 224.442,37.377 224.069,37.633 223.761 C 37.889 223.452,38.366 223.200,38.695 223.200 C 39.023 223.200,39.946 222.856,40.746 222.435 C 41.545 222.014,43.055 221.294,44.100 220.835 C 45.145 220.376,46.810 219.640,47.800 219.200 C 48.790 218.760,50.365 218.060,51.300 217.645 C 56.050 215.534,58.354 214.397,58.561 214.063 C 58.934 213.459,57.299 211.710,56.106 211.437 C 55.498 211.299,53.560 210.488,51.800 209.636 C 48.404 207.992,41.794 204.872,38.800 203.499 C 37.810 203.046,36.730 202.517,36.400 202.326 C 36.070 202.134,35.460 201.864,35.045 201.727 C 34.629 201.590,33.495 201.055,32.523 200.539 C 31.552 200.022,30.542 199.594,30.279 199.586 C 30.015 199.578,29.309 199.169,28.710 198.678 L 27.620 197.786 27.510 167.507 C 27.401 137.562,27.409 137.224,28.200 136.864 C 30.202 135.953,31.306 135.617,33.667 135.202 C 35.060 134.958,36.920 134.517,37.800 134.223 C 38.680 133.929,40.345 133.489,41.500 133.244 C 42.655 133.000,44.545 132.600,45.700 132.355 C 46.855 132.111,48.700 131.636,49.800 131.301 C 50.900 130.966,52.970 130.457,54.400 130.169 C 58.866 129.270,62.523 128.428,64.600 127.821 C 67.684 126.920,71.955 125.947,74.563 125.552 C 79.391 124.821,79.007 122.387,73.969 121.788 C 72.776 121.646,71.170 121.336,70.400 121.097 C 69.630 120.859,67.560 120.346,65.800 119.958 C 64.040 119.570,61.070 118.872,59.200 118.406 C 57.330 117.941,54.270 117.234,52.400 116.836 C 50.530 116.437,48.493 115.906,47.874 115.656 C 47.255 115.405,46.340 115.200,45.841 115.200 C 45.343 115.200,43.779 114.862,42.367 114.448 C 40.955 114.035,38.810 113.485,37.600 113.226 C 30.285 111.661,28.657 111.228,28.141 110.712 C 27.538 110.109,27.235 74.515,27.824 73.561 C 28.002 73.273,41.405 73.183,70.741 73.272 L 113.400 73.400 113.400 85.400 M224.662 132.731 C 223.567 133.941,223.656 188.365,224.755 189.359 C 226.392 190.840,283.322 189.681,285.267 188.127 C 285.560 187.893,286.700 187.574,287.800 187.419 C 288.900 187.264,290.160 186.909,290.600 186.629 C 291.040 186.350,292.075 185.900,292.900 185.630 C 293.725 185.359,294.400 184.984,294.400 184.796 C 294.400 184.608,294.802 184.326,295.294 184.170 C 297.530 183.461,301.948 178.641,302.894 175.881 C 303.135 175.176,303.618 174.158,303.966 173.618 C 304.915 172.148,304.915 149.852,303.966 148.382 C 303.618 147.842,303.135 146.824,302.894 146.119 C 301.948 143.359,297.530 138.539,295.294 137.830 C 294.802 137.674,294.400 137.392,294.400 137.204 C 294.400 137.016,293.725 136.641,292.900 136.370 C 292.075 136.100,291.040 135.653,290.600 135.378 C 290.160 135.102,288.990 134.760,288.000 134.618 C 287.010 134.475,285.570 134.104,284.800 133.794 C 280.399 132.021,226.172 131.063,224.662 132.731 M276.242 133.205 C 290.360 134.313,298.694 138.436,302.365 146.127 C 304.221 150.017,304.490 152.264,304.330 162.587 C 304.179 172.391,304.267 171.881,301.875 176.799 C 298.532 183.671,289.652 187.749,275.777 188.781 C 267.575 189.392,225.501 189.341,224.880 188.720 C 224.186 188.026,224.186 133.974,224.880 133.280 C 225.493 132.667,268.581 132.604,276.242 133.205 M80.800 249.087 C 80.470 249.215,80.068 249.518,79.906 249.760 C 79.357 250.581,79.542 275.459,80.100 275.877 C 80.375 276.084,82.092 276.746,83.916 277.349 C 96.430 281.488,98.140 296.613,86.800 302.869 C 76.307 308.657,55.566 306.643,50.144 299.309 C 44.469 291.633,47.109 280.918,55.478 277.662 C 56.755 277.166,58.250 276.536,58.800 276.264 L 59.800 275.769 59.800 262.996 L 59.800 250.224 58.884 249.767 C 56.978 248.817,46.494 251.720,41.800 254.498 C 40.166 255.465,37.404 257.396,36.808 257.988 C 36.469 258.325,35.743 258.960,35.196 259.400 C 33.429 260.819,28.800 266.929,28.800 267.842 C 28.800 268.061,28.597 268.443,28.348 268.692 C 24.749 272.291,22.887 292.309,25.325 301.200 C 26.488 305.444,27.731 309.065,28.176 309.508 C 28.338 309.669,28.716 310.387,29.017 311.104 C 29.535 312.342,31.994 316.312,33.041 317.600 C 34.933 319.928,38.743 323.725,40.133 324.668 C 41.050 325.289,41.890 325.894,42.000 326.012 C 42.358 326.396,46.165 328.640,47.600 329.313 C 61.815 335.984,80.828 335.779,94.200 328.810 C 110.854 320.132,119.610 300.926,115.991 281.015 C 114.988 275.496,114.133 273.139,110.911 267.000 C 108.082 261.610,101.002 255.325,94.200 252.168 C 90.057 250.245,82.370 248.477,80.800 249.087 M224.480 249.280 C 224.113 249.647,223.999 259.771,223.994 292.380 C 223.990 316.040,223.832 335.246,223.638 335.553 C 223.176 336.282,195.880 336.699,170.814 336.360 L 153.065 336.120 152.332 335.216 C 151.623 334.340,151.600 334.337,151.600 335.129 C 151.600 336.302,151.842 336.334,164.400 336.816 C 185.071 337.610,222.533 337.051,223.885 335.930 C 224.299 335.586,224.401 327.194,224.406 293.051 C 224.410 267.018,224.559 250.368,224.791 250.000 C 225.370 249.085,255.251 248.880,256.628 249.782 C 257.407 250.292,258.640 252.015,262.795 258.400 C 263.010 258.730,263.602 259.630,264.112 260.400 C 264.622 261.170,265.168 262.070,265.326 262.400 C 265.484 262.730,266.142 263.810,266.788 264.800 C 267.435 265.790,268.647 267.743,269.482 269.139 C 270.317 270.536,271.360 272.278,271.800 273.010 C 272.240 273.743,274.192 277.100,276.138 280.471 C 280.081 287.303,280.000 287.180,280.000 286.295 C 280.000 285.944,279.743 285.401,279.430 285.087 C 279.116 284.773,278.570 283.905,278.215 283.158 C 277.186 280.987,276.300 279.416,275.983 279.200 C 275.822 279.090,275.401 278.370,275.048 277.600 C 274.694 276.830,273.955 275.480,273.404 274.600 C 272.854 273.720,271.728 271.862,270.902 270.471 C 270.076 269.080,269.218 267.640,268.995 267.271 C 268.772 266.902,268.080 265.745,267.457 264.700 C 266.834 263.655,266.161 262.800,265.962 262.800 C 265.763 262.800,265.600 262.575,265.599 262.300 C 265.599 262.025,264.921 260.810,264.092 259.600 C 263.264 258.390,262.368 256.905,262.102 256.300 C 261.835 255.695,261.451 255.200,261.248 255.200 C 261.045 255.200,260.690 254.660,260.460 254.000 C 260.230 253.340,259.852 252.800,259.621 252.800 C 259.389 252.800,259.200 252.536,259.200 252.214 C 259.200 251.892,258.641 250.992,257.959 250.214 L 256.717 248.800 240.839 248.800 C 229.022 248.800,224.837 248.923,224.480 249.280 M90.400 251.658 C 91.610 252.107,93.266 252.818,94.079 253.237 C 94.893 253.657,95.793 254.012,96.079 254.027 C 96.366 254.041,97.410 254.670,98.400 255.425 C 99.390 256.179,100.560 256.958,101.000 257.155 C 102.469 257.813,107.673 263.253,108.723 265.230 C 109.007 265.764,109.676 266.920,110.211 267.800 C 110.746 268.680,111.385 269.850,111.631 270.400 C 111.876 270.950,112.331 271.940,112.641 272.600 C 113.202 273.795,114.043 276.575,114.878 280.000 C 115.437 282.288,115.428 296.738,114.867 299.400 C 114.252 302.316,113.277 305.625,112.628 307.000 C 112.317 307.660,111.938 308.695,111.787 309.300 C 111.637 309.905,111.375 310.400,111.205 310.400 C 111.036 310.400,110.657 310.985,110.364 311.700 C 109.830 313.002,107.127 317.181,106.000 318.446 C 105.670 318.816,104.945 319.632,104.389 320.260 C 100.290 324.882,90.362 330.480,84.600 331.418 C 83.720 331.562,82.100 331.942,81.000 332.263 C 78.311 333.048,67.888 333.402,63.600 332.853 C 52.277 331.404,43.996 327.591,37.181 320.687 C 33.147 316.600,32.800 316.213,32.800 315.798 C 32.800 315.614,32.541 315.177,32.225 314.827 C 31.909 314.478,30.918 312.730,30.023 310.943 C 19.966 290.848,26.249 262.317,42.251 255.421 C 42.939 255.124,43.616 254.697,43.756 254.472 C 43.895 254.246,44.592 253.937,45.305 253.785 C 46.017 253.632,46.799 253.348,47.043 253.152 C 47.502 252.784,52.462 251.392,55.577 250.757 C 59.001 250.060,58.800 249.316,58.800 262.653 C 58.800 275.652,58.774 275.799,56.428 276.195 C 55.558 276.342,54.634 276.718,54.374 277.031 C 54.114 277.344,53.666 277.600,53.378 277.600 C 52.765 277.600,49.415 280.842,48.075 282.731 C 45.835 285.890,45.637 293.732,47.711 297.200 C 49.528 300.240,54.063 304.400,55.559 304.400 C 55.924 304.400,56.596 304.662,57.054 304.983 C 59.272 306.536,68.580 307.714,74.400 307.177 C 89.157 305.816,96.528 298.675,94.846 287.369 C 94.269 283.488,90.550 278.480,87.699 277.745 C 87.204 277.617,86.130 277.172,85.314 276.756 C 84.498 276.340,83.388 276.000,82.847 276.000 C 80.431 276.000,80.400 275.835,80.400 262.725 C 80.400 250.981,80.414 250.769,81.233 250.466 C 82.456 250.013,87.863 250.716,90.400 251.658 " stroke="none" fill="#c094d9" fill-rule="evenodd"></path><path id="path4" d="M0.883 48.000 L 1.000 49.000 56.600 49.005 C 87.180 49.007,103.290 48.967,92.400 48.916 C 42.356 48.680,1.483 48.057,1.120 47.523 C 0.877 47.165,0.802 47.315,0.883 48.000 M116.117 49.097 C 117.611 49.174,119.951 49.174,121.317 49.096 C 122.682 49.018,121.460 48.955,118.600 48.955 C 115.740 48.956,114.622 49.020,116.117 49.097 M137.157 49.748 C 137.491 50.150,137.636 63.831,137.701 101.048 L 137.791 151.800 137.995 101.600 C 138.189 54.116,138.106 49.200,137.112 49.200 C 136.854 49.200,136.871 49.403,137.157 49.748 M151.300 71.065 C 150.467 71.401,150.576 335.716,151.410 336.408 C 153.737 338.339,222.596 338.364,224.525 336.435 C 224.885 336.075,225.021 325.593,225.087 293.280 L 225.174 250.600 226.007 250.400 C 226.464 250.290,233.573 250.290,241.803 250.400 L 256.768 250.600 257.684 251.863 C 258.958 253.619,259.370 254.234,261.253 257.200 C 264.708 262.638,265.491 263.855,266.993 266.118 C 267.547 266.953,268.000 267.691,268.000 267.758 C 268.000 267.826,268.988 269.483,270.195 271.441 C 271.402 273.398,272.664 275.540,272.998 276.200 C 273.332 276.860,274.048 278.120,274.589 279.000 C 275.129 279.880,275.855 281.140,276.202 281.800 C 276.549 282.460,277.260 283.720,277.783 284.600 C 278.305 285.480,279.100 286.920,279.548 287.800 C 279.997 288.680,281.083 290.660,281.962 292.200 C 284.521 296.682,298.815 324.725,299.340 326.292 C 299.470 326.681,299.751 327.270,299.964 327.600 C 300.177 327.930,301.217 330.045,302.275 332.300 C 304.051 336.082,304.309 336.427,305.600 336.757 C 309.161 337.667,326.266 338.093,349.400 337.848 C 381.364 337.508,383.190 337.364,382.528 335.236 C 381.708 332.600,367.178 303.288,361.195 292.200 C 360.008 290.000,358.616 287.390,358.102 286.400 C 356.799 283.893,350.037 272.042,346.515 266.095 C 346.028 265.273,345.258 263.970,344.804 263.200 C 344.349 262.430,343.628 261.260,343.201 260.600 C 342.774 259.940,342.126 258.869,341.760 258.220 C 341.395 257.570,340.850 256.792,340.548 256.491 C 340.247 256.190,340.000 255.792,340.000 255.608 C 340.000 255.424,338.826 253.502,337.391 251.337 C 335.957 249.172,334.562 247.065,334.291 246.655 C 334.021 246.245,333.305 245.275,332.700 244.500 C 331.146 242.508,331.506 241.501,333.932 241.053 C 334.664 240.918,335.834 240.549,336.532 240.234 C 337.229 239.919,339.060 239.120,340.600 238.458 C 344.503 236.781,349.245 234.255,351.601 232.599 C 352.696 231.830,353.703 231.200,353.839 231.200 C 354.895 231.200,363.176 223.500,366.097 219.801 C 367.140 218.481,368.220 217.138,368.497 216.818 C 368.774 216.498,369.232 215.778,369.515 215.218 C 369.798 214.658,370.468 213.480,371.005 212.600 C 371.542 211.720,372.165 210.550,372.391 210.000 C 372.616 209.450,372.980 208.688,373.199 208.307 C 374.825 205.482,376.966 197.461,377.574 191.916 C 378.128 186.865,378.141 133.492,377.590 128.679 C 376.765 121.479,372.868 110.188,370.165 107.169 C 369.854 106.821,369.598 106.371,369.596 106.169 C 369.593 105.851,367.069 102.449,365.200 100.243 C 364.580 99.511,359.063 93.998,358.000 93.049 C 354.153 89.611,340.816 82.178,336.400 81.010 C 335.850 80.864,334.860 80.499,334.200 80.199 C 332.655 79.495,329.587 78.497,326.800 77.792 C 325.590 77.486,323.520 76.961,322.200 76.625 C 317.047 75.315,314.484 74.781,311.600 74.417 C 309.950 74.208,308.060 73.858,307.400 73.639 C 306.740 73.420,303.860 73.047,301.000 72.810 C 298.140 72.574,294.900 72.206,293.800 71.994 C 288.641 71.000,153.643 70.119,151.300 71.065 M281.426 72.011 C 294.402 72.835,308.501 74.483,315.600 76.005 C 322.928 77.577,329.140 79.235,332.800 80.597 C 338.451 82.698,341.055 83.727,341.400 83.993 C 341.620 84.163,342.223 84.432,342.740 84.591 C 348.393 86.326,361.801 96.540,366.200 102.462 C 366.420 102.758,367.065 103.631,367.633 104.400 C 371.278 109.336,374.445 116.854,376.115 124.532 C 377.525 131.015,377.494 190.352,376.077 196.800 C 373.169 210.033,366.626 220.667,356.801 228.127 C 355.590 229.046,354.510 229.889,354.400 230.000 C 352.046 232.379,336.986 239.823,332.856 240.649 C 330.582 241.104,330.349 243.144,332.363 244.966 C 332.823 245.383,333.200 245.865,333.200 246.038 C 333.200 246.211,334.252 247.938,335.538 249.876 C 338.639 254.551,342.918 261.295,344.600 264.160 C 345.468 265.638,349.082 271.703,349.867 273.000 C 350.134 273.440,350.633 274.340,350.976 275.000 C 351.319 275.660,352.020 276.920,352.533 277.800 C 353.045 278.680,354.148 280.660,354.983 282.200 C 355.818 283.740,356.638 285.180,356.805 285.400 C 357.918 286.868,371.522 313.532,377.111 325.200 C 381.318 333.985,382.053 335.707,381.731 336.027 C 380.341 337.410,309.912 337.524,305.463 336.150 C 305.058 336.025,304.471 335.355,304.158 334.661 C 303.844 333.968,303.427 333.130,303.230 332.800 C 303.033 332.470,302.116 330.580,301.192 328.600 C 298.425 322.674,288.935 303.720,286.371 299.000 C 285.056 296.580,283.627 293.880,283.195 293.000 C 282.763 292.120,282.234 291.130,282.018 290.800 C 281.803 290.470,279.596 286.632,277.113 282.270 C 274.631 277.909,272.240 273.742,271.800 273.010 C 271.360 272.278,270.317 270.536,269.482 269.139 C 268.647 267.743,267.435 265.790,266.788 264.800 C 266.142 263.810,265.484 262.730,265.326 262.400 C 265.168 262.070,264.622 261.170,264.112 260.400 C 263.602 259.630,263.010 258.730,262.795 258.400 C 258.640 252.015,257.407 250.292,256.628 249.782 C 255.251 248.880,225.370 249.085,224.791 250.000 C 224.559 250.368,224.410 267.018,224.406 293.051 C 224.401 327.194,224.299 335.586,223.885 335.930 C 222.125 337.390,156.963 337.602,152.303 336.163 C 151.569 335.937,150.962 74.759,151.690 72.500 L 151.980 71.600 213.490 71.602 C 250.782 71.603,277.530 71.764,281.426 72.011 M224.880 133.280 C 224.186 133.974,224.186 188.026,224.880 188.720 C 225.501 189.341,267.575 189.392,275.777 188.781 C 289.652 187.749,298.532 183.671,301.875 176.799 C 304.267 171.881,304.179 172.391,304.330 162.587 C 304.617 144.002,300.447 137.927,285.000 134.426 C 278.001 132.839,226.306 131.854,224.880 133.280 M276.800 133.991 C 286.332 135.098,293.171 137.094,296.022 139.600 C 296.398 139.930,297.173 140.560,297.746 141.000 C 302.092 144.340,303.600 149.550,303.600 161.230 C 303.600 173.338,301.587 179.160,296.348 182.200 C 295.969 182.420,294.828 183.086,293.813 183.681 C 287.038 187.649,281.898 188.195,251.289 188.198 L 225.179 188.200 225.188 161.000 C 225.193 146.040,225.198 133.755,225.198 133.700 C 225.203 133.417,274.240 133.694,276.800 133.991 " stroke="none" fill="#827c7c" fill-rule="evenodd"></path></g></svg>