<svg id="svg" version="1.1" xmlns="http://www.w3.org/2000/svg" xmlns:xlink="http://www.w3.org/1999/xlink" width="1000" height="287" viewBox="0, 0, 400,61.69590643274854"><g id="svgg"><path id="path0" d="M0.008 4.208 L 0.016 8.417 0.475 7.076 C 1.456 4.209,3.046 2.386,5.683 1.103 C 6.553 0.680,7.412 0.328,7.591 0.322 C 7.770 0.315,8.067 0.245,8.250 0.167 C 8.448 0.082,6.843 0.019,4.292 0.012 L 0.000 0.000 0.008 4.208 M25.000 10.411 C 14.620 11.937,8.187 19.838,8.171 31.083 C 8.155 41.357,14.033 49.376,23.021 51.346 C 34.832 53.933,45.177 47.720,46.532 37.224 C 46.800 35.141,47.392 35.333,40.714 35.336 C 34.188 35.339,34.659 35.247,34.294 36.583 C 33.246 40.418,31.474 41.919,28.000 41.914 C 25.753 41.911,24.712 41.519,23.321 40.153 C 20.017 36.907,19.513 27.768,22.391 23.281 C 25.587 18.299,32.768 19.459,34.328 25.208 L 34.543 26.000 40.522 26.000 C 45.193 26.000,46.500 25.954,46.500 25.792 C 46.500 25.410,46.020 23.069,45.668 21.734 C 43.514 13.564,35.061 8.933,25.000 10.411 M291.750 10.763 C 283.418 11.375,278.727 14.265,277.749 19.390 C 277.440 21.012,277.380 40.149,277.678 41.986 C 278.681 48.159,284.405 51.146,295.263 51.163 C 305.659 51.180,311.244 48.568,312.793 42.965 C 313.235 41.369,313.235 20.464,312.793 18.868 C 311.880 15.567,308.831 12.606,305.667 11.946 C 305.438 11.899,304.762 11.736,304.167 11.585 C 301.496 10.908,295.330 10.500,291.750 10.763 M42.833 11.347 C 42.833 11.449,42.974 11.731,43.145 11.974 C 43.317 12.218,43.607 12.717,43.789 13.083 C 43.972 13.450,44.780 14.912,45.585 16.333 C 46.390 17.754,47.273 19.329,47.548 19.833 C 47.823 20.337,48.105 20.825,48.174 20.917 C 48.288 21.067,48.748 21.893,50.494 25.083 C 50.795 25.633,51.135 26.235,51.250 26.421 C 51.463 26.766,53.660 30.709,54.521 32.292 C 54.782 32.774,55.172 33.449,55.387 33.792 C 55.601 34.136,56.015 34.888,56.305 35.463 L 56.833 36.510 56.833 43.755 L 56.833 51.000 62.917 51.000 L 69.000 51.000 69.033 44.375 C 69.051 40.731,69.072 37.412,69.079 37.000 C 69.088 36.496,69.232 36.032,69.520 35.583 C 69.756 35.217,70.345 34.204,70.829 33.333 C 71.313 32.462,72.139 31.000,72.663 30.083 C 73.188 29.167,74.089 27.592,74.666 26.583 C 75.243 25.575,75.998 24.262,76.342 23.667 C 76.687 23.071,77.696 21.308,78.584 19.750 C 79.472 18.192,80.285 16.811,80.391 16.683 C 80.537 16.505,80.603 20.612,80.667 33.683 L 80.750 50.917 86.542 50.960 L 92.333 51.004 92.333 38.419 C 92.333 31.497,92.396 25.833,92.473 25.833 C 92.550 25.833,92.711 26.265,92.831 26.792 C 93.036 27.697,93.456 29.255,95.582 37.000 C 96.072 38.787,96.898 41.825,97.416 43.750 C 98.966 49.509,99.168 50.233,99.334 50.625 L 99.493 51.000 104.002 51.000 C 107.462 51.000,108.526 50.952,108.577 50.792 C 108.614 50.677,109.065 49.046,109.581 47.167 C 110.096 45.288,110.849 42.550,111.253 41.083 C 111.658 39.617,112.071 38.079,112.169 37.667 C 112.268 37.254,112.724 35.567,113.182 33.917 C 114.368 29.646,115.131 26.823,115.243 26.292 C 115.589 24.651,115.668 26.701,115.707 38.375 L 115.750 50.917 121.431 50.960 L 127.113 51.004 127.231 31.249 C 127.296 20.383,127.303 11.419,127.248 11.330 C 127.184 11.227,123.934 11.167,118.431 11.167 L 109.716 11.167 109.099 13.708 C 108.759 15.106,108.153 17.600,107.752 19.250 C 107.351 20.900,106.525 24.313,105.917 26.833 C 104.156 34.138,104.129 34.243,103.991 34.395 C 103.869 34.530,103.503 33.515,103.501 33.032 C 103.500 32.913,103.045 30.963,102.488 28.699 C 101.273 23.756,100.255 19.574,99.336 15.750 C 98.961 14.192,98.543 12.522,98.406 12.041 L 98.157 11.165 84.069 11.207 L 69.982 11.250 69.660 11.833 C 69.483 12.154,68.209 14.817,66.828 17.750 C 63.257 25.334,63.103 25.647,62.966 25.562 C 62.841 25.485,62.682 25.152,61.420 22.333 C 61.031 21.462,60.486 20.262,60.210 19.667 C 59.933 19.071,59.318 17.721,58.842 16.667 C 58.366 15.612,57.620 13.963,57.185 13.000 L 56.393 11.250 49.613 11.206 C 44.742 11.175,42.833 11.215,42.833 11.347 M230.083 11.311 C 228.640 11.403,228.419 11.456,228.431 11.708 C 228.438 11.869,228.457 20.662,228.472 31.250 L 228.500 50.500 233.833 50.500 L 239.167 50.500 239.167 39.819 C 239.167 28.680,239.174 28.567,239.839 29.761 C 239.989 30.030,240.320 30.625,240.575 31.083 C 240.830 31.542,241.170 32.104,241.332 32.333 C 241.493 32.563,241.766 33.013,241.938 33.335 C 242.779 34.909,245.446 39.392,245.712 39.677 C 245.991 39.976,246.263 40.000,249.427 40.000 L 252.840 40.000 253.587 38.846 C 253.997 38.211,254.333 37.645,254.333 37.588 C 254.333 37.531,254.607 37.056,254.942 36.534 C 255.277 36.011,255.715 35.283,255.914 34.917 C 256.464 33.907,256.937 33.094,257.408 32.348 C 257.642 31.977,257.833 31.636,257.833 31.590 C 257.833 31.544,258.083 31.111,258.388 30.628 C 258.694 30.145,258.991 29.619,259.050 29.458 C 259.108 29.298,259.271 29.167,259.411 29.167 C 259.638 29.167,259.667 30.366,259.667 39.833 L 259.667 50.500 264.917 50.500 L 270.168 50.500 270.126 30.958 L 270.083 11.417 267.456 11.274 C 265.998 11.195,263.586 11.195,262.039 11.274 L 259.250 11.417 258.750 12.188 C 258.299 12.884,257.667 13.964,256.277 16.415 C 256.016 16.874,255.510 17.717,255.152 18.288 C 254.793 18.858,254.500 19.362,254.500 19.407 C 254.500 19.452,254.088 20.169,253.583 21.000 C 253.079 21.831,252.667 22.550,252.667 22.597 C 252.667 22.644,252.393 23.110,252.058 23.633 C 251.723 24.156,251.284 24.883,251.083 25.250 C 249.479 28.176,249.403 28.226,248.637 26.833 C 248.360 26.329,248.076 25.842,248.006 25.750 C 247.935 25.658,247.691 25.246,247.463 24.833 C 247.235 24.421,246.712 23.521,246.302 22.833 C 245.891 22.146,245.079 20.758,244.496 19.750 C 242.808 16.827,241.842 15.168,241.102 13.917 C 240.722 13.275,240.265 12.471,240.087 12.129 C 239.908 11.788,239.665 11.471,239.546 11.426 C 239.186 11.287,231.864 11.199,230.083 11.311 M152.111 11.444 C 151.951 11.604,151.979 50.042,152.139 50.294 C 152.243 50.458,153.431 50.495,157.511 50.461 L 162.750 50.417 162.794 44.042 L 162.837 37.667 165.317 37.667 C 167.138 37.667,167.824 37.722,167.895 37.875 C 167.949 37.990,168.163 38.361,168.371 38.700 C 168.580 39.039,169.118 39.939,169.569 40.700 C 170.019 41.461,170.635 42.496,170.938 43.000 C 171.241 43.504,172.223 45.379,173.120 47.167 L 174.750 50.417 180.375 50.461 C 183.962 50.489,186.000 50.445,186.000 50.341 C 186.000 49.971,182.236 42.642,181.222 41.038 C 180.916 40.555,180.667 40.122,180.667 40.075 C 180.667 40.029,180.179 39.239,179.583 38.321 C 178.272 36.300,178.277 36.439,179.497 36.027 C 182.239 35.101,184.358 32.855,185.105 30.083 C 185.483 28.681,185.421 19.878,185.024 18.583 C 183.680 14.193,179.840 12.105,172.000 11.501 C 169.662 11.321,152.284 11.272,152.111 11.444 M317.579 11.508 C 317.401 11.795,317.299 17.320,317.447 18.667 L 317.583 19.917 323.500 20.000 L 329.417 20.083 329.500 35.250 L 329.583 50.417 334.833 50.417 L 340.083 50.417 340.167 35.250 L 340.250 20.083 346.132 20.083 L 352.015 20.083 352.132 19.667 C 352.287 19.119,352.285 12.002,352.130 11.625 C 351.987 11.276,317.794 11.160,317.579 11.508 M192.763 30.792 C 192.815 41.402,192.852 50.177,192.845 50.292 C 192.822 50.697,220.943 50.584,221.161 50.178 C 221.346 49.832,221.410 42.560,221.232 42.097 C 221.142 41.861,220.200 41.833,212.316 41.833 L 203.500 41.833 203.500 38.500 C 203.500 35.947,203.549 35.166,203.708 35.162 C 203.823 35.160,207.642 35.162,212.196 35.167 C 218.733 35.173,220.504 35.131,220.612 34.963 C 220.788 34.692,220.902 28.740,220.754 27.559 L 220.643 26.670 212.113 26.627 L 203.583 26.583 203.538 23.292 L 203.493 20.000 212.312 20.000 C 220.200 20.000,221.142 19.972,221.232 19.736 C 221.364 19.392,221.364 12.108,221.232 11.764 C 221.141 11.526,219.723 11.500,206.900 11.500 L 192.668 11.500 192.763 30.792 M357.374 30.958 L 357.417 50.417 371.491 50.459 C 381.152 50.489,385.620 50.447,385.740 50.327 C 385.950 50.116,386.089 44.469,385.922 42.908 L 385.807 41.833 376.987 41.833 L 368.167 41.833 368.167 38.500 C 368.167 35.947,368.215 35.166,368.375 35.162 C 368.490 35.160,372.258 35.160,376.750 35.162 C 381.242 35.165,385.007 35.108,385.117 35.037 C 385.395 34.856,385.576 31.071,385.423 28.627 L 385.301 26.670 376.775 26.627 L 368.250 26.583 368.205 23.292 L 368.160 20.000 376.974 20.000 L 385.788 20.000 385.894 19.227 C 385.952 18.801,386.000 17.237,386.000 15.750 C 386.000 14.263,385.952 12.699,385.894 12.273 L 385.788 11.500 371.560 11.500 L 357.332 11.500 357.374 30.958 M300.011 20.141 C 302.344 21.047,302.334 21.001,302.330 30.870 C 302.326 39.930,302.322 39.960,301.257 40.798 C 299.164 42.444,291.140 42.432,289.359 40.780 C 288.315 39.811,288.333 39.992,288.333 30.833 C 288.333 20.420,288.322 20.452,292.167 19.767 C 293.531 19.524,299.107 19.790,300.011 20.141 M171.167 20.484 C 173.581 20.796,174.546 21.804,174.643 24.112 C 174.806 28.016,173.650 28.717,167.021 28.737 L 162.917 28.750 162.872 24.542 L 162.828 20.333 166.455 20.339 C 168.451 20.342,170.571 20.407,171.167 20.484 M0.010 57.625 L 0.000 61.667 3.694 61.667 C 5.726 61.667,7.358 61.638,7.319 61.603 C 7.281 61.567,6.837 61.365,6.333 61.152 C 3.525 59.967,1.383 57.659,0.420 54.778 L 0.021 53.583 0.010 57.625 " stroke="none" fill="#f4f3f4" fill-rule="evenodd"></path><path id="path1" d="M7.750 0.266 C 4.204 1.223,1.558 3.738,0.426 7.230 L 0.000 8.543 0.000 31.000 L 0.000 53.457 0.411 54.718 C 1.383 57.696,3.463 59.926,6.469 61.215 L 7.522 61.667 72.761 61.667 L 138.000 61.667 138.000 30.833 L 138.000 0.000 73.292 0.021 C 19.565 0.038,8.442 0.080,7.750 0.266 M31.761 10.411 C 40.031 11.519,44.658 15.957,46.258 24.318 C 46.391 25.014,46.500 25.677,46.500 25.792 C 46.500 25.954,45.193 26.000,40.522 26.000 L 34.543 26.000 34.328 25.208 C 32.768 19.459,25.587 18.299,22.391 23.281 C 19.513 27.768,20.017 36.907,23.321 40.153 C 24.712 41.519,25.753 41.911,28.000 41.914 C 31.474 41.919,33.246 40.418,34.294 36.583 C 34.659 35.247,34.188 35.339,40.714 35.336 C 47.392 35.333,46.800 35.141,46.532 37.224 C 45.177 47.720,34.832 53.933,23.021 51.346 C 15.225 49.638,9.745 43.464,8.497 34.986 C 6.209 19.436,16.668 8.388,31.761 10.411 M57.185 13.000 C 57.620 13.963,58.366 15.612,58.842 16.667 C 59.318 17.721,59.933 19.071,60.210 19.667 C 60.486 20.262,61.031 21.462,61.420 22.333 C 62.682 25.152,62.841 25.485,62.966 25.562 C 63.103 25.647,63.257 25.334,66.828 17.750 C 68.209 14.817,69.483 12.154,69.660 11.833 L 69.982 11.250 84.069 11.207 L 98.157 11.165 98.406 12.041 C 98.543 12.522,98.961 14.192,99.336 15.750 C 100.255 19.574,101.273 23.756,102.488 28.699 C 103.045 30.963,103.500 32.913,103.501 33.032 C 103.503 33.515,103.869 34.530,103.991 34.395 C 104.129 34.243,104.156 34.138,105.917 26.833 C 106.525 24.313,107.351 20.900,107.752 19.250 C 108.153 17.600,108.759 15.106,109.099 13.708 L 109.716 11.167 118.431 11.167 C 123.934 11.167,127.184 11.227,127.248 11.330 C 127.303 11.419,127.296 20.383,127.231 31.249 L 127.113 51.004 121.431 50.960 L 115.750 50.917 115.707 38.375 C 115.668 26.701,115.589 24.651,115.243 26.292 C 115.131 26.823,114.368 29.646,113.182 33.917 C 112.724 35.567,112.268 37.254,112.169 37.667 C 112.071 38.079,111.658 39.617,111.253 41.083 C 110.849 42.550,110.096 45.288,109.581 47.167 C 109.065 49.046,108.614 50.677,108.577 50.792 C 108.526 50.952,107.462 51.000,104.002 51.000 L 99.493 51.000 99.334 50.625 C 99.168 50.233,98.966 49.509,97.416 43.750 C 96.898 41.825,96.072 38.787,95.582 37.000 C 93.456 29.255,93.036 27.697,92.831 26.792 C 92.711 26.265,92.550 25.833,92.473 25.833 C 92.396 25.833,92.333 31.497,92.333 38.419 L 92.333 51.004 86.542 50.960 L 80.750 50.917 80.667 33.683 C 80.603 20.612,80.537 16.505,80.391 16.683 C 80.285 16.811,79.472 18.192,78.584 19.750 C 77.696 21.308,76.687 23.071,76.342 23.667 C 75.998 24.262,75.243 25.575,74.666 26.583 C 74.089 27.592,73.188 29.167,72.663 30.083 C 72.139 31.000,71.313 32.462,70.829 33.333 C 70.345 34.204,69.756 35.217,69.520 35.583 C 69.232 36.032,69.088 36.496,69.079 37.000 C 69.072 37.412,69.051 40.731,69.033 44.375 L 69.000 51.000 62.917 51.000 L 56.833 51.000 56.833 43.755 L 56.833 36.510 56.305 35.463 C 56.015 34.888,55.601 34.136,55.387 33.792 C 55.172 33.449,54.782 32.774,54.521 32.292 C 53.660 30.709,51.463 26.766,51.250 26.421 C 51.135 26.235,50.795 25.633,50.494 25.083 C 48.748 21.893,48.288 21.067,48.174 20.917 C 48.105 20.825,47.823 20.337,47.548 19.833 C 47.273 19.329,46.390 17.754,45.585 16.333 C 44.780 14.912,43.972 13.450,43.789 13.083 C 43.607 12.717,43.317 12.218,43.145 11.974 C 42.558 11.141,42.400 11.160,49.613 11.206 L 56.393 11.250 57.185 13.000 " stroke="none" fill="#922dd0" fill-rule="evenodd"></path><path id="path2" d="M138.293 0.500 C 138.230 0.821,138.127 14.715,138.063 31.375 L 137.948 61.667 268.974 61.667 L 400.000 61.667 400.000 32.583 L 400.000 3.500 398.260 3.500 C 397.280 3.500,396.475 3.573,396.417 3.667 C 396.282 3.884,393.718 3.884,393.583 3.667 C 393.354 3.296,383.980 3.457,383.882 3.833 C 383.746 4.351,378.517 4.351,378.382 3.833 C 378.265 3.387,373.667 3.306,373.667 3.750 C 373.667 3.887,373.592 4.000,373.500 4.000 C 373.408 4.000,373.333 3.887,373.333 3.750 C 373.333 3.305,368.568 3.387,368.452 3.833 C 368.369 4.148,368.224 4.167,365.833 4.167 C 363.442 4.167,363.297 4.148,363.215 3.833 C 363.133 3.519,362.988 3.500,360.667 3.500 C 358.346 3.500,358.201 3.519,358.118 3.833 C 357.990 4.323,356.580 4.323,356.452 3.833 C 356.317 3.317,351.587 3.317,351.452 3.833 C 351.315 4.355,342.851 4.355,342.715 3.833 C 342.598 3.387,338.000 3.306,338.000 3.750 C 338.000 3.887,337.925 4.000,337.833 4.000 C 337.742 4.000,337.667 3.887,337.667 3.750 C 337.667 3.450,332.933 3.370,332.750 3.667 C 332.689 3.765,331.668 3.833,330.250 3.833 C 328.832 3.833,327.811 3.901,327.750 4.000 C 327.525 4.364,322.646 4.207,322.548 3.833 C 322.411 3.308,303.089 3.308,302.952 3.833 C 302.816 4.351,297.517 4.351,297.382 3.833 C 297.265 3.387,292.667 3.306,292.667 3.750 C 292.667 3.887,292.592 4.000,292.500 4.000 C 292.408 4.000,292.333 3.887,292.333 3.750 C 292.333 3.305,287.568 3.387,287.452 3.833 C 287.317 4.350,282.350 4.350,282.215 3.833 C 282.080 3.317,277.253 3.317,277.118 3.833 C 276.990 4.323,275.580 4.323,275.452 3.833 C 275.317 3.317,270.587 3.317,270.452 3.833 C 270.367 4.156,270.224 4.167,266.083 4.167 C 261.942 4.167,261.799 4.156,261.715 3.833 C 261.598 3.387,257.000 3.306,257.000 3.750 C 257.000 3.887,256.925 4.000,256.833 4.000 C 256.742 4.000,256.667 3.887,256.667 3.750 C 256.667 3.450,251.933 3.370,251.750 3.667 C 251.689 3.765,250.668 3.833,249.250 3.833 C 247.832 3.833,246.811 3.901,246.750 4.000 C 246.525 4.364,241.646 4.207,241.548 3.833 C 241.428 3.373,236.788 3.312,236.533 3.768 C 236.395 4.015,236.375 4.015,236.280 3.768 C 236.159 3.453,231.774 3.359,231.583 3.667 C 231.447 3.887,228.667 3.887,228.667 3.667 C 228.667 3.292,219.050 3.457,218.952 3.833 C 218.817 4.349,213.776 4.349,213.500 3.833 C 213.262 3.388,208.833 3.309,208.833 3.750 C 208.833 3.887,208.758 4.000,208.667 4.000 C 208.575 4.000,208.500 3.887,208.500 3.750 C 208.500 3.305,203.569 3.386,203.452 3.833 C 203.317 4.350,198.350 4.350,198.215 3.833 C 198.080 3.317,193.420 3.317,193.285 3.833 C 193.156 4.325,191.677 4.325,191.548 3.833 C 191.414 3.319,186.775 3.319,186.500 3.833 C 186.222 4.354,177.921 4.354,177.785 3.833 C 177.668 3.387,173.167 3.306,173.167 3.750 C 173.167 3.887,173.092 4.000,173.000 4.000 C 172.908 4.000,172.833 3.887,172.833 3.750 C 172.833 3.539,172.444 3.500,170.333 3.500 C 168.778 3.500,167.833 3.563,167.833 3.667 C 167.833 3.770,166.892 3.833,165.343 3.833 C 163.863 3.833,162.811 3.901,162.750 4.000 C 162.525 4.363,157.716 4.207,157.618 3.833 C 157.520 3.457,147.813 3.295,147.583 3.667 C 147.447 3.888,144.167 3.888,144.167 3.667 C 144.167 3.562,143.139 3.500,141.417 3.500 L 138.667 3.500 138.650 2.625 C 138.619 0.953,138.427 -0.186,138.293 0.500 M301.209 10.751 C 303.078 11.026,304.400 11.297,304.917 11.513 C 305.100 11.590,305.565 11.733,305.949 11.830 C 306.631 12.004,307.876 12.602,309.279 13.433 C 310.301 14.037,311.806 15.749,312.333 16.906 C 313.295 19.018,313.250 18.330,313.250 30.917 L 313.250 42.583 312.771 43.828 C 311.379 47.444,308.652 49.478,303.750 50.557 C 300.812 51.204,300.257 51.249,295.250 51.241 C 284.623 51.226,279.722 49.059,277.746 43.500 C 277.351 42.388,277.141 21.438,277.504 19.333 C 278.098 15.886,282.402 11.667,285.325 11.667 C 285.502 11.667,285.687 11.602,285.736 11.522 C 285.785 11.443,286.108 11.329,286.454 11.269 C 290.570 10.554,290.788 10.535,295.126 10.518 C 298.239 10.505,299.995 10.572,301.209 10.751 M239.693 11.319 C 239.916 11.494,240.245 11.923,240.424 12.273 C 240.603 12.623,240.990 13.295,241.282 13.766 C 241.575 14.237,242.015 14.988,242.258 15.436 C 242.943 16.693,243.974 18.453,244.861 19.881 C 245.304 20.594,245.667 21.235,245.667 21.304 C 245.667 21.374,246.029 22.027,246.471 22.757 C 248.209 25.624,249.167 27.302,249.167 27.480 C 249.167 28.107,249.510 27.634,250.966 25.000 C 251.194 24.587,251.514 24.060,251.676 23.829 C 251.838 23.597,252.152 23.072,252.374 22.662 C 253.075 21.366,253.527 20.591,253.732 20.333 C 253.842 20.196,254.039 19.858,254.172 19.583 C 254.304 19.308,254.732 18.576,255.123 17.957 C 255.514 17.337,255.833 16.773,255.833 16.704 C 255.833 16.634,256.020 16.302,256.248 15.967 C 256.712 15.284,257.472 13.961,258.040 12.845 C 258.247 12.439,258.651 11.858,258.936 11.553 L 259.456 11.000 264.603 11.002 C 267.434 11.004,269.919 11.050,270.125 11.105 L 270.500 11.206 270.500 30.858 C 270.500 49.418,270.484 50.517,270.208 50.630 C 270.048 50.696,267.667 50.750,264.917 50.750 C 262.167 50.750,259.785 50.696,259.625 50.630 C 259.352 50.518,259.333 49.852,259.333 39.974 L 259.333 29.438 258.667 30.543 C 258.300 31.151,258.000 31.689,258.000 31.738 C 258.000 31.787,257.743 32.228,257.430 32.718 C 257.116 33.208,256.581 34.128,256.240 34.763 C 255.899 35.397,255.574 35.954,255.518 36.000 C 255.412 36.087,255.355 36.184,254.281 38.083 C 253.057 40.249,253.261 40.107,251.171 40.242 C 250.160 40.308,248.514 40.308,247.512 40.243 L 245.691 40.125 245.179 39.302 C 244.897 38.849,244.667 38.447,244.667 38.409 C 244.667 38.371,244.404 37.929,244.083 37.428 C 243.762 36.926,243.500 36.476,243.500 36.426 C 243.500 36.377,243.162 35.810,242.750 35.167 C 242.338 34.523,242.000 33.949,242.000 33.890 C 242.000 33.831,241.641 33.213,241.202 32.517 C 240.763 31.820,240.224 30.890,240.004 30.449 C 239.784 30.008,239.544 29.610,239.469 29.564 C 239.394 29.518,239.333 34.212,239.333 39.995 C 239.333 49.853,239.315 50.518,239.042 50.630 C 238.409 50.890,228.500 50.769,228.330 50.500 C 228.233 50.346,228.171 42.759,228.169 30.786 L 228.167 11.323 228.542 11.172 C 229.373 10.838,239.247 10.968,239.693 11.319 M172.833 11.328 C 175.188 11.517,177.550 11.927,178.583 12.326 C 182.524 13.850,184.468 15.697,185.344 18.750 C 185.793 20.312,185.683 29.308,185.199 30.648 C 184.285 33.177,182.059 35.419,179.726 36.156 C 178.841 36.436,178.504 36.660,178.792 36.777 C 178.906 36.823,179.000 36.924,179.000 37.001 C 179.000 37.077,179.412 37.739,179.917 38.471 C 180.421 39.203,180.833 39.857,180.833 39.924 C 180.833 39.992,181.146 40.542,181.528 41.148 C 182.684 42.978,186.358 50.375,186.193 50.541 C 185.987 50.747,178.307 50.884,176.259 50.718 L 174.602 50.583 172.745 46.897 C 171.723 44.869,170.741 42.994,170.563 42.730 C 170.384 42.466,170.130 42.025,169.998 41.750 C 169.867 41.475,169.458 40.800,169.090 40.250 C 168.723 39.700,168.260 38.950,168.061 38.583 L 167.701 37.917 165.350 37.870 L 163.000 37.824 163.000 44.167 C 163.000 50.052,162.979 50.519,162.708 50.630 C 162.246 50.820,152.209 50.776,152.019 50.583 C 151.896 50.459,151.708 13.289,151.821 11.375 C 151.836 11.129,169.846 11.089,172.833 11.328 M221.464 11.458 C 221.782 12.234,221.596 19.851,221.252 20.102 C 220.971 20.308,219.628 20.338,212.294 20.297 L 203.667 20.250 203.667 23.292 L 203.667 26.333 212.242 26.333 L 220.818 26.333 220.947 26.958 C 221.017 27.302,221.075 29.046,221.075 30.833 C 221.075 32.621,221.017 34.365,220.947 34.708 L 220.818 35.333 212.242 35.333 L 203.667 35.333 203.667 38.417 L 203.667 41.500 212.396 41.500 C 220.313 41.500,221.147 41.526,221.355 41.776 C 221.614 42.088,221.693 48.900,221.451 50.043 L 221.318 50.669 206.951 50.626 L 192.583 50.583 192.540 31.083 C 192.517 20.358,192.533 11.490,192.577 11.375 C 192.721 10.996,221.308 11.079,221.464 11.458 M352.448 11.958 C 352.628 13.009,352.573 19.114,352.379 19.750 L 352.226 20.250 346.405 20.250 L 340.583 20.250 340.500 35.361 C 340.454 43.672,340.354 50.535,340.278 50.611 C 340.022 50.867,329.757 50.782,329.442 50.521 C 329.190 50.312,329.167 49.041,329.167 35.271 L 329.167 20.250 323.331 20.296 L 317.495 20.342 317.331 19.910 C 317.155 19.447,317.099 11.871,317.268 11.430 C 317.359 11.192,319.063 11.167,334.841 11.167 L 352.313 11.167 352.448 11.958 M386.066 11.430 C 386.486 12.526,386.337 19.639,385.884 20.092 C 385.669 20.308,384.458 20.340,377.026 20.329 L 368.417 20.316 368.371 23.324 L 368.326 26.333 376.834 26.333 L 385.342 26.333 385.504 26.761 C 385.682 27.228,385.731 33.971,385.563 34.813 L 385.458 35.333 376.896 35.333 L 368.333 35.333 368.333 38.415 L 368.333 41.497 377.118 41.540 L 385.903 41.583 386.041 42.167 C 386.231 42.971,386.281 48.166,386.112 49.543 L 385.973 50.669 371.612 50.626 L 357.250 50.583 357.208 30.875 L 357.165 11.167 371.565 11.167 C 384.544 11.167,385.974 11.193,386.066 11.430 M292.250 20.019 C 290.677 20.247,289.660 20.738,289.083 21.547 L 288.583 22.250 288.583 30.833 L 288.583 39.417 289.083 40.119 C 290.814 42.551,300.381 42.439,301.698 39.972 L 302.083 39.250 302.083 30.833 L 302.083 22.417 301.698 21.695 C 300.872 20.147,296.600 19.389,292.250 20.019 M163.000 24.516 L 163.000 28.532 167.375 28.455 C 171.969 28.374,172.361 28.315,173.444 27.541 C 174.712 26.635,174.885 23.089,173.724 21.805 C 172.851 20.839,170.873 20.500,166.114 20.500 L 163.000 20.500 163.000 24.516 " stroke="none" fill="#3c3a36" fill-rule="evenodd"></path><path id="path3" d="M291.083 10.651 C 290.625 10.706,292.537 10.750,295.333 10.750 C 298.129 10.750,300.004 10.701,299.500 10.641 C 298.375 10.508,292.229 10.515,291.083 10.651 M287.833 11.092 C 286.198 11.443,284.653 11.875,284.736 11.958 C 284.777 11.999,285.584 11.842,286.530 11.608 C 287.476 11.375,288.662 11.115,289.167 11.030 C 289.871 10.913,289.948 10.875,289.500 10.868 C 289.179 10.864,288.429 10.964,287.833 11.092 M301.250 11.010 C 301.617 11.085,302.104 11.143,302.333 11.137 C 302.995 11.121,301.902 10.873,301.167 10.872 L 300.583 10.872 301.250 11.010 M233.132 11.124 C 233.708 11.156,234.608 11.156,235.132 11.123 C 235.655 11.090,235.183 11.063,234.083 11.064 C 232.983 11.064,232.555 11.091,233.132 11.124 M263.875 11.123 C 264.402 11.156,265.265 11.156,265.792 11.123 C 266.319 11.090,265.887 11.063,264.833 11.063 C 263.779 11.063,263.348 11.090,263.875 11.123 M152.033 11.367 C 151.808 11.592,151.736 49.923,151.961 50.276 C 152.028 50.382,152.083 41.682,152.083 30.942 L 152.083 11.417 161.083 11.331 L 170.083 11.246 161.158 11.206 C 154.394 11.176,152.185 11.215,152.033 11.367 M229.375 11.289 C 229.810 11.324,230.523 11.324,230.958 11.289 C 231.394 11.255,231.037 11.227,230.167 11.227 C 229.296 11.227,228.940 11.255,229.375 11.289 M236.750 11.266 C 237.494 11.386,239.790 11.409,239.610 11.295 C 239.504 11.227,238.742 11.181,237.917 11.192 C 237.092 11.203,236.567 11.236,236.750 11.266 M259.094 11.430 C 258.949 11.574,258.748 11.856,258.647 12.055 C 258.534 12.278,258.646 12.210,258.940 11.876 C 259.403 11.351,259.460 11.334,260.917 11.285 L 262.417 11.235 260.887 11.201 C 259.683 11.174,259.301 11.223,259.094 11.430 M268.583 11.323 L 270.083 11.417 270.126 30.958 L 270.168 50.500 264.917 50.500 L 259.667 50.500 259.667 39.821 C 259.667 29.943,259.646 29.146,259.389 29.196 C 259.236 29.226,259.074 29.363,259.028 29.500 C 258.958 29.714,258.986 29.717,259.222 29.522 C 259.478 29.311,259.501 30.056,259.540 39.939 L 259.583 50.583 262.250 50.680 C 263.717 50.733,266.117 50.733,267.583 50.680 L 270.250 50.583 270.392 31.121 C 270.504 15.827,270.491 11.606,270.330 11.413 C 270.173 11.224,269.772 11.174,268.605 11.198 L 267.083 11.230 268.583 11.323 M303.583 11.418 C 304.042 11.551,304.529 11.657,304.667 11.653 C 305.098 11.640,304.303 11.383,303.500 11.275 L 302.750 11.175 303.583 11.418 M317.479 11.442 C 317.229 11.743,317.132 19.295,317.370 19.875 C 317.481 20.145,317.928 20.167,323.411 20.167 L 329.333 20.167 329.333 35.333 C 329.333 43.675,329.390 50.500,329.458 50.500 C 329.527 50.500,329.546 43.656,329.500 35.292 L 329.417 20.083 323.500 20.000 L 317.583 19.917 317.447 18.667 C 317.281 17.155,317.413 11.687,317.620 11.480 C 317.705 11.395,325.106 11.350,334.926 11.374 L 352.083 11.417 352.186 12.000 L 352.289 12.583 352.311 11.976 C 352.326 11.562,352.250 11.337,352.070 11.268 C 351.353 10.993,317.711 11.162,317.479 11.442 M170.681 11.394 C 170.719 11.427,171.612 11.494,172.667 11.542 C 173.895 11.599,174.314 11.581,173.833 11.494 C 173.089 11.359,170.547 11.278,170.681 11.394 M206.824 11.458 C 217.962 11.492,221.094 11.547,221.197 11.709 C 221.290 11.856,221.329 11.832,221.331 11.625 C 221.333 11.349,220.554 11.336,206.958 11.374 L 192.583 11.415 206.824 11.458 M357.244 11.542 C 357.200 11.656,357.184 20.412,357.208 31.000 L 357.251 50.250 357.292 30.875 L 357.333 11.500 371.573 11.500 L 385.812 11.500 385.879 12.042 C 385.946 12.575,385.947 12.574,385.973 11.958 L 386.000 11.333 371.661 11.333 C 360.344 11.333,357.306 11.377,357.244 11.542 M175.083 11.833 C 175.358 11.903,175.808 11.961,176.083 11.961 L 176.583 11.961 176.083 11.833 C 175.808 11.763,175.358 11.706,175.083 11.706 L 174.583 11.706 175.083 11.833 M305.167 11.833 C 305.304 11.922,305.567 11.991,305.750 11.986 L 306.083 11.977 305.750 11.833 C 305.252 11.619,304.835 11.619,305.167 11.833 M177.994 12.422 C 178.679 12.639,179.264 12.791,179.295 12.760 C 179.381 12.675,177.308 11.998,177.009 12.014 C 176.867 12.021,177.310 12.205,177.994 12.422 M221.391 15.583 C 221.390 18.182,221.418 18.733,221.487 17.474 C 221.540 16.497,221.540 14.847,221.487 13.807 C 221.416 12.399,221.391 12.853,221.391 15.583 M228.414 31.250 C 228.414 41.883,228.434 46.258,228.458 40.971 C 228.483 35.685,228.483 26.985,228.458 21.638 C 228.434 16.291,228.414 20.617,228.414 31.250 M282.807 12.708 C 281.311 13.473,279.318 15.190,278.902 16.073 C 278.770 16.354,278.757 16.433,278.873 16.250 C 279.573 15.142,281.484 13.536,282.995 12.784 C 283.864 12.353,284.488 12.000,284.383 12.000 C 284.278 12.000,283.569 12.319,282.807 12.708 M306.167 12.035 C 306.320 12.177,308.500 13.150,308.500 13.077 C 308.500 12.978,307.009 12.238,306.500 12.084 C 306.271 12.015,306.121 11.993,306.167 12.035 M258.103 12.911 C 257.954 13.137,257.833 13.360,257.833 13.408 C 257.833 13.455,257.546 13.964,257.194 14.539 C 256.403 15.832,256.133 16.333,256.228 16.333 C 256.298 16.333,257.915 13.658,258.318 12.875 C 258.577 12.374,258.439 12.397,258.103 12.911 M386.069 15.667 C 386.069 17.362,386.094 18.056,386.124 17.208 C 386.154 16.360,386.154 14.973,386.124 14.125 C 386.094 13.277,386.069 13.971,386.069 15.667 M352.401 15.667 C 352.401 17.179,352.426 17.798,352.457 17.042 C 352.488 16.285,352.488 15.048,352.457 14.292 C 352.426 13.535,352.401 14.154,352.401 15.667 M180.333 13.243 C 180.333 13.289,180.633 13.480,181.000 13.667 C 181.367 13.854,181.667 13.969,181.667 13.923 C 181.667 13.878,181.367 13.687,181.000 13.500 C 180.633 13.313,180.333 13.197,180.333 13.243 M240.812 13.417 C 240.902 13.600,241.098 13.900,241.247 14.083 L 241.518 14.417 241.355 14.083 C 241.265 13.900,241.069 13.600,240.920 13.417 L 240.648 13.083 240.812 13.417 M310.051 14.331 C 311.701 15.842,312.497 17.298,312.920 19.583 C 313.091 20.504,313.140 20.616,313.152 20.113 C 313.198 18.128,311.132 14.536,309.418 13.624 C 309.234 13.526,309.519 13.844,310.051 14.331 M182.417 14.571 C 182.783 14.904,183.327 15.449,183.625 15.783 C 183.923 16.116,184.167 16.337,184.167 16.274 C 184.167 16.077,182.796 14.662,182.260 14.305 C 181.870 14.045,181.906 14.107,182.417 14.571 M241.756 15.000 C 241.917 15.321,242.362 16.108,242.744 16.750 C 243.126 17.392,243.916 18.742,244.498 19.750 C 246.278 22.832,247.185 24.333,247.268 24.333 C 247.356 24.333,246.611 22.998,246.138 22.309 C 245.972 22.067,245.779 21.729,245.709 21.559 C 245.640 21.389,245.140 20.500,244.599 19.583 C 244.057 18.667,243.199 17.204,242.692 16.333 C 241.727 14.677,241.253 14.003,241.756 15.000 M184.168 16.538 C 184.167 16.604,184.316 16.904,184.499 17.204 C 184.682 17.504,184.832 17.675,184.832 17.583 C 184.831 17.492,184.682 17.192,184.500 16.917 C 184.318 16.642,184.168 16.471,184.168 16.538 M278.262 17.143 C 278.118 17.422,278.000 17.745,278.000 17.860 C 278.000 17.976,278.149 17.778,278.331 17.422 C 278.513 17.065,278.631 16.742,278.593 16.704 C 278.555 16.667,278.407 16.864,278.262 17.143 M255.564 17.375 C 254.990 18.348,254.952 18.431,255.245 18.083 C 255.583 17.680,255.875 17.167,255.766 17.167 C 255.722 17.167,255.631 17.260,255.564 17.375 M184.939 18.250 C 185.114 19.043,185.353 19.519,185.232 18.833 C 185.175 18.512,185.061 18.137,184.979 18.000 C 184.881 17.837,184.867 17.923,184.939 18.250 M254.778 18.625 C 254.737 18.694,254.536 19.050,254.333 19.417 C 254.129 19.783,253.776 20.402,253.549 20.792 C 253.321 21.181,253.172 21.500,253.218 21.500 C 253.301 21.500,253.735 20.792,254.570 19.292 C 254.917 18.669,255.096 18.094,254.778 18.625 M277.615 19.004 C 277.554 19.231,277.512 19.642,277.521 19.917 C 277.533 20.315,277.566 20.265,277.684 19.667 C 277.845 18.847,277.792 18.340,277.615 19.004 M352.193 19.195 C 352.179 19.439,352.118 19.777,352.059 19.945 C 351.976 20.179,351.998 20.206,352.154 20.063 C 352.268 19.958,352.327 19.629,352.289 19.313 C 352.233 18.855,352.215 18.833,352.193 19.195 M385.833 19.500 L 385.833 20.000 377.000 20.000 C 372.142 20.000,368.167 20.056,368.167 20.125 C 368.167 20.194,372.179 20.230,377.083 20.205 L 386.000 20.161 386.000 19.580 C 386.000 19.261,385.962 19.000,385.917 19.000 C 385.871 19.000,385.833 19.225,385.833 19.500 M185.407 24.417 C 185.407 27.167,185.430 28.315,185.458 26.969 C 185.486 25.622,185.486 23.372,185.458 21.969 C 185.430 20.565,185.407 21.667,185.407 24.417 M221.167 19.833 C 221.167 19.942,218.111 20.000,212.333 20.000 C 207.475 20.000,203.500 20.056,203.500 20.125 C 203.500 20.194,207.512 20.230,212.417 20.205 C 220.166 20.167,221.333 20.129,221.333 19.914 C 221.333 19.778,221.296 19.667,221.250 19.667 C 221.204 19.667,221.167 19.742,221.167 19.833 M293.875 19.791 C 294.677 19.821,295.990 19.821,296.792 19.791 C 297.594 19.760,296.938 19.735,295.333 19.735 C 293.729 19.735,293.073 19.760,293.875 19.791 M291.167 19.998 C 290.996 20.106,291.129 20.125,291.583 20.055 C 292.407 19.929,292.547 19.833,291.903 19.836 C 291.635 19.837,291.304 19.910,291.167 19.998 M299.083 20.075 C 302.262 20.887,302.158 20.527,302.163 30.797 C 302.167 39.641,302.165 39.660,301.284 40.663 L 300.917 41.081 301.315 40.749 C 302.321 39.911,302.326 39.862,302.330 30.870 C 302.334 21.924,302.337 21.961,301.377 20.959 C 300.886 20.446,299.393 19.826,298.702 19.848 C 298.382 19.858,298.493 19.924,299.083 20.075 M340.245 20.208 C 340.112 20.563,340.076 50.500,340.208 50.500 C 340.277 50.500,340.333 43.676,340.333 35.335 L 340.333 20.171 346.125 20.125 L 351.917 20.079 346.120 20.039 C 341.606 20.009,340.306 20.046,340.245 20.208 M290.083 20.361 C 288.524 21.224,288.327 21.856,288.367 25.868 L 288.401 29.250 288.492 25.750 C 288.602 21.550,288.747 21.130,290.333 20.446 C 290.654 20.307,290.804 20.190,290.667 20.185 C 290.529 20.181,290.267 20.260,290.083 20.361 M162.833 20.458 C 162.833 20.527,163.977 20.564,165.375 20.540 C 170.138 20.460,170.589 20.401,166.708 20.367 C 164.577 20.349,162.833 20.390,162.833 20.458 M171.417 20.670 C 171.875 20.741,172.400 20.845,172.583 20.902 C 172.767 20.959,172.692 20.895,172.417 20.760 C 172.142 20.625,171.617 20.521,171.250 20.528 C 170.597 20.541,170.601 20.544,171.417 20.670 M277.411 29.417 C 277.411 34.275,277.432 36.238,277.458 33.780 C 277.484 31.321,277.484 27.346,277.458 24.947 C 277.432 22.547,277.411 24.558,277.411 29.417 M173.363 21.359 C 173.609 21.574,173.965 22.012,174.154 22.333 C 174.344 22.654,174.499 22.829,174.499 22.721 C 174.500 22.436,173.459 21.121,173.167 21.039 C 173.029 21.000,173.118 21.144,173.363 21.359 M162.899 23.417 C 162.899 24.700,162.926 25.203,162.957 24.534 C 162.989 23.866,162.989 22.816,162.957 22.201 C 162.925 21.586,162.899 22.133,162.899 23.417 M252.566 22.458 C 252.075 23.325,251.741 23.883,251.370 24.458 C 251.237 24.665,251.164 24.833,251.209 24.833 C 251.253 24.833,251.474 24.552,251.701 24.208 C 252.281 23.329,253.193 21.667,253.095 21.667 C 253.051 21.667,252.812 22.023,252.566 22.458 M174.560 24.500 C 174.560 25.371,174.588 25.727,174.623 25.292 C 174.657 24.856,174.657 24.144,174.623 23.708 C 174.588 23.273,174.560 23.629,174.560 24.500 M192.746 37.333 C 192.746 44.346,192.766 47.215,192.792 43.708 C 192.817 40.202,192.817 34.465,192.792 30.958 C 192.766 27.452,192.746 30.321,192.746 37.333 M250.690 25.659 C 250.497 26.030,250.369 26.333,250.406 26.333 C 250.533 26.333,251.204 25.149,251.123 25.067 C 251.078 25.022,250.883 25.289,250.690 25.659 M247.812 25.417 C 247.902 25.600,248.098 25.900,248.247 26.083 L 248.518 26.417 248.355 26.083 C 248.265 25.900,248.069 25.600,247.920 25.417 L 247.648 25.083 247.812 25.417 M203.609 26.542 C 203.652 26.610,207.502 26.667,212.165 26.667 L 220.645 26.667 220.714 27.125 C 220.779 27.554,220.785 27.549,220.808 27.045 L 220.833 26.506 212.183 26.461 C 207.425 26.437,203.567 26.473,203.609 26.542 M368.276 26.542 C 368.318 26.610,372.166 26.667,376.827 26.667 L 385.300 26.667 385.423 28.625 C 385.576 31.071,385.395 34.856,385.117 35.037 C 385.007 35.108,381.177 35.162,376.606 35.158 C 372.035 35.153,368.257 35.188,368.209 35.235 C 368.162 35.283,371.947 35.326,376.622 35.330 C 384.178 35.338,385.146 35.309,385.340 35.075 C 385.605 34.756,385.763 29.144,385.551 27.583 L 385.415 26.583 376.807 26.500 C 372.072 26.454,368.233 26.473,368.276 26.542 M248.500 26.564 C 248.500 26.868,249.250 27.830,249.475 27.814 C 249.731 27.796,249.731 27.790,249.475 27.722 C 249.323 27.681,249.107 27.426,248.995 27.154 C 248.813 26.715,248.500 26.342,248.500 26.564 M249.917 27.000 C 249.774 27.275,249.696 27.500,249.741 27.500 C 249.787 27.500,249.941 27.275,250.083 27.000 C 250.226 26.725,250.304 26.500,250.259 26.500 C 250.213 26.500,250.059 26.725,249.917 27.000 M173.844 27.211 C 173.621 27.486,173.133 27.849,172.761 28.018 C 172.388 28.188,172.181 28.328,172.300 28.330 C 172.805 28.338,174.561 26.986,174.321 26.774 C 174.282 26.739,174.067 26.936,173.844 27.211 M220.903 30.833 C 220.903 32.621,220.928 33.352,220.958 32.458 C 220.988 31.565,220.988 30.102,220.958 29.208 C 220.928 28.315,220.903 29.046,220.903 30.833 M170.833 28.500 L 170.083 28.617 170.833 28.639 C 171.246 28.651,171.696 28.589,171.833 28.500 C 172.127 28.310,172.054 28.310,170.833 28.500 M162.978 28.712 C 163.049 28.783,164.564 28.820,166.345 28.795 L 169.583 28.749 166.216 28.666 C 164.364 28.621,162.907 28.641,162.978 28.712 M239.167 29.343 C 239.167 29.440,239.237 29.476,239.323 29.423 C 239.409 29.370,239.557 29.459,239.651 29.621 C 239.746 29.784,239.825 29.838,239.828 29.742 C 239.834 29.537,239.494 29.167,239.300 29.167 C 239.227 29.167,239.167 29.246,239.167 29.343 M185.088 30.119 C 185.024 30.460,184.860 30.954,184.723 31.218 C 184.587 31.482,184.514 31.736,184.561 31.784 C 184.609 31.831,184.761 31.597,184.900 31.264 C 185.178 30.599,185.419 29.500,185.287 29.500 C 185.241 29.500,185.151 29.779,185.088 30.119 M239.245 40.083 C 239.245 45.858,239.266 48.197,239.292 45.280 C 239.317 42.363,239.317 37.638,239.292 34.780 C 239.266 31.922,239.245 34.308,239.245 40.083 M258.278 30.792 C 257.863 31.481,257.329 32.547,257.464 32.417 C 257.687 32.201,258.535 30.667,258.432 30.667 C 258.388 30.667,258.319 30.723,258.278 30.792 M240.929 31.958 C 241.095 32.210,241.484 32.867,241.794 33.417 C 242.104 33.967,242.436 34.492,242.532 34.583 C 242.744 34.785,241.776 32.997,241.201 32.125 C 240.974 31.781,240.753 31.500,240.709 31.500 C 240.664 31.500,240.764 31.706,240.929 31.958 M183.563 33.262 C 183.313 33.590,182.615 34.203,182.012 34.625 C 180.884 35.414,180.376 35.826,180.833 35.582 C 182.028 34.944,184.584 32.667,184.106 32.667 C 184.057 32.667,183.812 32.935,183.563 33.262 M256.923 33.098 C 256.767 33.335,256.678 33.567,256.724 33.613 C 256.771 33.660,256.929 33.466,257.075 33.182 C 257.399 32.555,257.310 32.506,256.923 33.098 M256.161 34.425 C 255.960 34.751,255.832 35.054,255.877 35.099 C 255.922 35.144,256.117 34.878,256.310 34.507 C 256.744 33.675,256.655 33.626,256.161 34.425 M220.655 34.583 L 220.583 35.083 212.104 35.118 C 207.441 35.137,203.585 35.193,203.535 35.243 C 203.485 35.293,207.322 35.333,212.061 35.333 C 221.363 35.333,220.948 35.374,220.794 34.470 C 220.736 34.131,220.718 34.145,220.655 34.583 M242.917 35.333 C 243.059 35.608,243.213 35.833,243.259 35.833 C 243.304 35.833,243.226 35.608,243.083 35.333 C 242.941 35.058,242.787 34.833,242.741 34.833 C 242.696 34.833,242.774 35.058,242.917 35.333 M255.003 36.432 C 254.621 37.036,254.343 37.565,254.385 37.607 C 254.427 37.650,254.643 37.361,254.864 36.967 C 255.086 36.573,255.403 36.044,255.569 35.792 C 255.736 35.540,255.832 35.333,255.784 35.333 C 255.736 35.333,255.384 35.828,255.003 36.432 M178.958 36.194 C 178.412 36.393,178.389 36.609,178.857 37.167 L 179.206 37.583 178.936 37.131 C 178.582 36.536,178.581 36.539,179.208 36.264 C 179.828 35.993,179.647 35.942,178.958 36.194 M243.837 36.958 C 243.839 37.027,243.994 37.271,244.180 37.500 L 244.520 37.917 244.256 37.375 C 244.005 36.860,243.829 36.685,243.837 36.958 M168.354 39.000 C 168.819 39.733,169.232 40.333,169.271 40.333 C 169.350 40.333,169.033 39.750,168.409 38.750 C 168.180 38.383,167.949 37.990,167.895 37.875 C 167.842 37.760,167.732 37.667,167.652 37.667 C 167.572 37.667,167.888 38.267,168.354 39.000 M288.352 38.715 C 288.307 39.824,290.237 41.985,290.784 41.438 C 290.824 41.399,290.599 41.282,290.286 41.178 C 289.396 40.885,288.723 40.007,288.488 38.833 C 288.383 38.307,288.370 38.296,288.352 38.715 M179.979 38.917 C 180.069 39.100,180.264 39.400,180.414 39.583 L 180.685 39.917 180.521 39.583 C 180.431 39.400,180.236 39.100,180.086 38.917 L 179.815 38.583 179.979 38.917 M253.244 39.375 C 252.980 39.776,252.902 39.980,253.066 39.845 C 253.341 39.620,253.915 38.667,253.776 38.667 C 253.740 38.667,253.501 38.985,253.244 39.375 M245.309 39.330 C 245.496 39.650,245.735 39.939,245.839 39.974 C 245.943 40.009,245.911 39.898,245.768 39.727 C 245.624 39.556,245.385 39.267,245.237 39.083 C 245.089 38.900,245.121 39.011,245.309 39.330 M180.673 40.083 C 180.674 40.175,180.827 40.438,181.015 40.667 C 181.241 40.943,181.298 40.971,181.183 40.750 C 180.902 40.206,180.672 39.905,180.673 40.083 M247.875 40.124 C 248.677 40.155,249.990 40.155,250.792 40.124 C 251.594 40.094,250.938 40.069,249.333 40.069 C 247.729 40.069,247.073 40.094,247.875 40.124 M169.479 40.750 C 169.569 40.933,169.764 41.233,169.914 41.417 L 170.185 41.750 170.021 41.417 C 169.931 41.233,169.736 40.933,169.586 40.750 L 169.315 40.417 169.479 40.750 M313.027 41.438 C 313.012 41.724,312.963 42.211,312.917 42.521 L 312.834 43.083 313.010 42.524 C 313.106 42.217,313.156 41.729,313.119 41.441 L 313.053 40.917 313.027 41.438 M277.536 41.833 C 277.534 42.154,277.593 42.604,277.667 42.833 C 277.854 43.418,277.860 42.807,277.676 41.917 L 277.538 41.250 277.536 41.833 M203.500 41.708 C 203.500 41.777,207.469 41.833,212.319 41.833 C 219.219 41.833,221.157 41.879,221.223 42.042 C 221.274 42.167,221.312 42.135,221.320 41.961 C 221.332 41.691,220.753 41.669,212.417 41.628 C 207.512 41.603,203.500 41.640,203.500 41.708 M291.167 41.662 C 291.304 41.753,291.673 41.829,291.986 41.831 C 292.733 41.834,292.600 41.740,291.667 41.604 C 291.143 41.528,290.992 41.545,291.167 41.662 M298.667 41.667 C 298.097 41.787,298.095 41.790,298.583 41.800 C 298.858 41.805,299.233 41.745,299.417 41.667 C 299.817 41.494,299.485 41.494,298.667 41.667 M368.167 41.708 C 368.167 41.777,372.137 41.833,376.989 41.833 L 385.812 41.833 385.879 42.375 C 385.946 42.911,385.947 42.910,385.973 42.295 L 386.000 41.672 377.083 41.628 C 372.179 41.603,368.167 41.640,368.167 41.708 M294.133 41.957 C 294.894 41.988,296.094 41.988,296.800 41.957 C 297.506 41.926,296.883 41.901,295.417 41.901 C 293.950 41.901,293.372 41.927,294.133 41.957 M182.333 43.000 C 182.611 43.550,182.876 44.000,182.921 44.000 C 182.967 44.000,182.778 43.550,182.500 43.000 C 182.222 42.450,181.958 42.000,181.912 42.000 C 181.866 42.000,182.056 42.450,182.333 43.000 M170.805 43.000 C 170.988 43.321,171.410 44.127,171.742 44.792 C 172.075 45.456,172.378 46.000,172.415 46.000 C 172.577 46.000,171.169 43.254,170.749 42.750 C 170.564 42.528,170.583 42.612,170.805 43.000 M221.404 46.083 C 221.404 48.008,221.428 48.773,221.458 47.783 C 221.487 46.792,221.487 45.217,221.458 44.283 C 221.428 43.348,221.404 44.158,221.404 46.083 M312.591 43.612 C 312.389 44.417,311.696 45.738,311.072 46.506 L 310.468 47.250 311.219 46.459 C 311.926 45.714,313.026 43.470,312.797 43.241 C 312.747 43.192,312.655 43.358,312.591 43.612 M277.929 43.667 C 277.990 43.896,278.110 44.196,278.195 44.333 C 278.302 44.507,278.315 44.456,278.238 44.167 C 278.176 43.938,278.057 43.637,277.972 43.500 C 277.865 43.326,277.851 43.377,277.929 43.667 M386.068 46.000 C 386.068 47.512,386.093 48.131,386.124 47.375 C 386.155 46.619,386.155 45.381,386.124 44.625 C 386.093 43.869,386.068 44.487,386.068 46.000 M183.029 44.292 C 183.292 44.875,184.023 46.167,184.089 46.167 C 184.134 46.167,183.944 45.717,183.667 45.167 C 183.389 44.617,183.119 44.167,183.067 44.167 C 183.015 44.167,182.998 44.223,183.029 44.292 M278.902 45.762 C 279.176 46.339,281.000 48.092,281.805 48.551 C 282.626 49.019,282.427 48.762,281.516 48.177 C 280.729 47.672,279.569 46.535,278.954 45.667 L 278.659 45.250 278.902 45.762 M184.184 46.417 C 184.184 46.508,184.589 47.371,185.083 48.333 C 185.578 49.296,185.983 50.008,185.983 49.917 C 185.983 49.825,185.578 48.962,185.083 48.000 C 184.589 47.038,184.184 46.325,184.184 46.417 M173.200 47.580 C 173.400 47.990,173.591 48.297,173.626 48.262 C 173.702 48.187,173.028 46.833,172.915 46.833 C 172.873 46.833,173.001 47.169,173.200 47.580 M309.657 47.803 C 309.332 48.049,308.882 48.385,308.657 48.549 C 308.266 48.836,308.271 48.836,308.804 48.549 C 309.331 48.265,310.510 47.342,310.333 47.352 C 310.287 47.354,309.983 47.557,309.657 47.803 M173.667 48.562 C 173.667 48.742,174.329 50.000,174.423 50.000 C 174.469 50.000,174.346 49.681,174.150 49.292 C 173.763 48.526,173.667 48.380,173.667 48.562 M282.500 48.940 C 282.500 49.053,284.015 49.707,284.093 49.629 C 284.130 49.593,283.786 49.405,283.330 49.213 C 282.873 49.020,282.500 48.897,282.500 48.940 M385.802 49.917 C 385.764 50.237,385.794 50.500,385.867 50.500 C 385.940 50.500,386.000 50.237,386.000 49.917 C 386.000 49.596,385.971 49.333,385.935 49.333 C 385.899 49.333,385.839 49.596,385.802 49.917 M284.583 49.833 C 284.767 49.912,285.029 49.977,285.167 49.977 C 285.324 49.977,285.293 49.924,285.083 49.833 C 284.900 49.755,284.637 49.690,284.500 49.690 C 284.342 49.690,284.373 49.743,284.583 49.833 M305.000 50.007 C 304.496 50.175,304.233 50.312,304.417 50.310 C 304.600 50.309,305.125 50.169,305.583 50.000 C 306.662 49.602,306.196 49.608,305.000 50.007 M285.667 50.159 C 285.804 50.252,286.060 50.329,286.236 50.331 C 286.663 50.334,286.529 50.239,285.917 50.102 C 285.552 50.020,285.484 50.036,285.667 50.159 M154.969 50.625 C 156.372 50.653,158.622 50.653,159.969 50.625 C 161.315 50.597,160.167 50.574,157.417 50.574 C 154.667 50.574,153.565 50.597,154.969 50.625 M177.792 50.625 C 179.281 50.652,181.719 50.652,183.208 50.625 C 184.698 50.597,183.479 50.574,180.500 50.574 C 177.521 50.574,176.302 50.597,177.792 50.625 M231.250 50.666 C 232.717 50.728,235.079 50.728,236.500 50.666 C 238.588 50.576,238.076 50.554,233.833 50.554 C 229.507 50.554,229.053 50.573,231.250 50.666 M287.750 50.667 C 288.025 50.737,288.438 50.794,288.667 50.794 C 289.038 50.794,289.029 50.780,288.583 50.667 C 288.308 50.597,287.896 50.539,287.667 50.539 C 287.295 50.539,287.304 50.553,287.750 50.667 M302.083 50.667 C 301.637 50.780,301.628 50.794,302.000 50.794 C 302.229 50.794,302.642 50.737,302.917 50.667 C 303.363 50.553,303.372 50.539,303.000 50.539 C 302.771 50.539,302.358 50.597,302.083 50.667 M332.292 50.625 C 333.690 50.653,335.977 50.653,337.375 50.625 C 338.773 50.597,337.629 50.574,334.833 50.574 C 332.037 50.574,330.894 50.597,332.292 50.625 M290.000 51.001 C 290.754 51.143,292.616 51.220,292.486 51.104 C 292.448 51.070,291.704 51.001,290.833 50.951 C 289.724 50.887,289.474 50.902,290.000 51.001 M299.083 51.000 L 298.083 51.111 299.000 51.124 C 299.504 51.131,300.292 51.079,300.750 51.008 L 301.583 50.878 300.833 50.884 C 300.421 50.887,299.633 50.939,299.083 51.000 M294.208 51.290 C 294.827 51.322,295.840 51.322,296.458 51.290 C 297.077 51.258,296.571 51.232,295.333 51.232 C 294.096 51.232,293.590 51.258,294.208 51.290 " stroke="none" fill="#81807e" fill-rule="evenodd"></path><path id="path4" d="M138.037 13.042 C 138.057 20.215,138.094 24.996,138.119 23.667 C 138.233 17.641,138.237 -0.000,138.125 -0.000 C 138.056 -0.000,138.017 5.869,138.037 13.042 M138.558 1.125 C 138.616 1.744,138.665 2.531,138.665 2.875 L 138.667 3.500 141.417 3.500 C 143.139 3.500,144.167 3.562,144.167 3.667 C 144.167 3.888,147.447 3.888,147.583 3.667 C 147.813 3.295,157.520 3.457,157.618 3.833 C 157.716 4.207,162.525 4.363,162.750 4.000 C 162.811 3.901,163.863 3.833,165.343 3.833 C 166.892 3.833,167.833 3.770,167.833 3.667 C 167.833 3.563,168.778 3.500,170.333 3.500 C 172.444 3.500,172.833 3.539,172.833 3.750 C 172.833 3.887,172.908 4.000,173.000 4.000 C 173.092 4.000,173.167 3.887,173.167 3.750 C 173.167 3.306,177.668 3.387,177.785 3.833 C 177.921 4.354,186.222 4.354,186.500 3.833 C 186.775 3.319,191.414 3.319,191.548 3.833 C 191.677 4.325,193.156 4.325,193.285 3.833 C 193.420 3.317,198.080 3.317,198.215 3.833 C 198.350 4.350,203.317 4.350,203.452 3.833 C 203.569 3.386,208.500 3.305,208.500 3.750 C 208.500 3.887,208.575 4.000,208.667 4.000 C 208.758 4.000,208.833 3.887,208.833 3.750 C 208.833 3.309,213.262 3.388,213.500 3.833 C 213.776 4.349,218.817 4.349,218.952 3.833 C 219.050 3.457,228.667 3.292,228.667 3.667 C 228.667 3.887,231.447 3.887,231.583 3.667 C 231.773 3.360,236.124 3.454,236.300 3.768 C 236.438 4.015,236.459 4.015,236.553 3.768 C 236.729 3.311,241.428 3.372,241.548 3.833 C 241.646 4.207,246.525 4.364,246.750 4.000 C 246.811 3.901,247.832 3.833,249.250 3.833 C 250.668 3.833,251.689 3.765,251.750 3.667 C 251.933 3.370,256.667 3.450,256.667 3.750 C 256.667 3.887,256.742 4.000,256.833 4.000 C 256.925 4.000,257.000 3.887,257.000 3.750 C 257.000 3.306,261.598 3.387,261.715 3.833 C 261.851 4.355,270.315 4.355,270.452 3.833 C 270.587 3.317,275.317 3.317,275.452 3.833 C 275.580 4.323,276.990 4.323,277.118 3.833 C 277.253 3.317,282.080 3.317,282.215 3.833 C 282.350 4.350,287.317 4.350,287.452 3.833 C 287.568 3.387,292.333 3.305,292.333 3.750 C 292.333 3.887,292.408 4.000,292.500 4.000 C 292.592 4.000,292.667 3.887,292.667 3.750 C 292.667 3.306,297.265 3.387,297.382 3.833 C 297.517 4.351,302.816 4.351,302.952 3.833 C 303.089 3.308,322.411 3.308,322.548 3.833 C 322.646 4.207,327.525 4.364,327.750 4.000 C 327.811 3.901,328.832 3.833,330.250 3.833 C 331.668 3.833,332.689 3.765,332.750 3.667 C 332.933 3.370,337.667 3.450,337.667 3.750 C 337.667 3.887,337.742 4.000,337.833 4.000 C 337.925 4.000,338.000 3.887,338.000 3.750 C 338.000 3.306,342.598 3.387,342.715 3.833 C 342.851 4.355,351.315 4.355,351.452 3.833 C 351.534 3.519,351.679 3.500,353.952 3.500 C 356.224 3.500,356.370 3.519,356.452 3.833 C 356.580 4.323,357.990 4.323,358.118 3.833 C 358.253 3.317,363.080 3.317,363.215 3.833 C 363.350 4.350,368.317 4.350,368.452 3.833 C 368.568 3.387,373.333 3.305,373.333 3.750 C 373.333 3.887,373.408 4.000,373.500 4.000 C 373.592 4.000,373.667 3.887,373.667 3.750 C 373.667 3.306,378.265 3.387,378.382 3.833 C 378.517 4.351,383.746 4.351,383.882 3.833 C 383.980 3.457,393.354 3.296,393.583 3.667 C 393.718 3.884,396.282 3.884,396.417 3.667 C 396.475 3.573,397.280 3.500,398.260 3.500 L 400.000 3.500 400.000 1.750 L 400.000 0.000 269.226 0.000 L 138.452 0.000 138.558 1.125 M290.960 10.618 C 291.168 10.658,291.468 10.656,291.627 10.615 C 291.786 10.573,291.617 10.540,291.250 10.542 C 290.883 10.544,290.753 10.578,290.960 10.618 M299.127 10.618 C 299.334 10.658,299.634 10.656,299.794 10.615 C 299.953 10.573,299.783 10.540,299.417 10.542 C 299.050 10.544,298.920 10.578,299.127 10.618 M229.625 11.123 C 230.106 11.157,230.894 11.157,231.375 11.123 C 231.856 11.089,231.463 11.062,230.500 11.062 C 229.537 11.062,229.144 11.089,229.625 11.123 M236.792 11.123 C 237.273 11.157,238.060 11.157,238.542 11.123 C 239.023 11.089,238.629 11.062,237.667 11.062 C 236.704 11.062,236.310 11.089,236.792 11.123 M260.381 11.123 C 260.912 11.157,261.737 11.156,262.214 11.123 C 262.692 11.089,262.258 11.062,261.250 11.062 C 260.242 11.063,259.851 11.090,260.381 11.123 M267.458 11.123 C 267.940 11.157,268.727 11.157,269.208 11.123 C 269.690 11.089,269.296 11.062,268.333 11.062 C 267.371 11.062,266.977 11.089,267.458 11.123 M151.745 11.542 C 151.694 11.749,151.677 12.518,151.709 13.251 L 151.766 14.583 151.800 13.075 C 151.820 12.167,151.913 11.487,152.033 11.367 C 152.185 11.215,152.186 11.167,152.037 11.167 C 151.928 11.167,151.797 11.336,151.745 11.542 M170.375 11.286 C 170.627 11.324,171.040 11.324,171.292 11.286 C 171.544 11.248,171.338 11.217,170.833 11.217 C 170.329 11.217,170.123 11.248,170.375 11.286 M192.577 11.374 C 192.533 11.489,192.517 20.358,192.540 31.083 L 192.583 50.583 206.708 50.585 L 220.833 50.586 206.750 50.542 L 192.667 50.498 192.667 30.916 L 192.667 11.333 206.988 11.333 C 221.210 11.333,221.311 11.336,221.386 11.669 C 221.448 11.949,221.457 11.942,221.439 11.628 L 221.417 11.250 207.037 11.207 C 195.621 11.174,192.640 11.208,192.577 11.374 M228.244 11.375 C 228.200 11.490,228.184 20.321,228.208 31.000 L 228.251 50.417 228.292 30.889 C 228.325 15.453,228.377 11.343,228.542 11.277 C 228.705 11.211,228.704 11.190,228.536 11.180 C 228.419 11.173,228.287 11.260,228.244 11.375 M317.242 11.558 C 317.188 11.773,317.174 12.241,317.210 12.599 C 317.271 13.190,317.280 13.172,317.305 12.408 C 317.321 11.945,317.423 11.477,317.533 11.367 C 317.685 11.215,317.686 11.167,317.537 11.167 C 317.428 11.167,317.296 11.343,317.242 11.558 M357.167 11.292 C 357.167 11.405,367.402 11.404,380.917 11.289 C 383.758 11.265,379.577 11.227,371.625 11.206 C 363.673 11.184,357.167 11.223,357.167 11.292 M173.542 11.448 C 173.702 11.490,173.965 11.490,174.125 11.448 C 174.285 11.406,174.154 11.372,173.833 11.372 C 173.512 11.372,173.381 11.406,173.542 11.448 M386.042 12.083 C 386.044 12.450,386.078 12.580,386.118 12.373 C 386.158 12.166,386.156 11.866,386.115 11.706 C 386.073 11.547,386.040 11.717,386.042 12.083 M352.375 12.417 C 352.377 12.783,352.411 12.914,352.451 12.706 C 352.491 12.499,352.490 12.199,352.448 12.040 C 352.406 11.880,352.374 12.050,352.375 12.417 M221.559 13.917 C 221.559 14.742,221.587 15.100,221.622 14.713 C 221.657 14.327,221.657 13.652,221.623 13.213 C 221.588 12.775,221.560 13.092,221.559 13.917 M386.233 15.583 C 386.234 16.958,386.259 17.499,386.291 16.784 C 386.322 16.069,386.322 14.944,386.290 14.284 C 386.259 13.624,386.233 14.208,386.233 15.583 M352.565 15.583 C 352.565 16.775,352.592 17.241,352.624 16.618 C 352.656 15.996,352.656 15.021,352.623 14.451 C 352.591 13.882,352.564 14.392,352.565 15.583 M279.994 14.625 L 279.083 15.583 280.042 14.672 C 280.932 13.826,281.076 13.667,280.953 13.667 C 280.927 13.667,280.495 14.098,279.994 14.625 M310.500 14.552 C 310.500 14.581,310.744 14.825,311.042 15.094 L 311.583 15.583 311.094 15.042 C 310.638 14.537,310.500 14.423,310.500 14.552 M221.559 17.417 C 221.559 18.242,221.587 18.600,221.622 18.213 C 221.657 17.827,221.657 17.152,221.623 16.713 C 221.588 16.275,221.560 16.592,221.559 17.417 M317.214 18.917 C 317.216 19.375,317.248 19.543,317.286 19.289 C 317.325 19.036,317.324 18.661,317.284 18.456 C 317.244 18.251,317.213 18.458,317.214 18.917 M352.375 18.917 C 352.377 19.283,352.411 19.414,352.451 19.206 C 352.491 18.999,352.490 18.699,352.448 18.540 C 352.406 18.380,352.374 18.550,352.375 18.917 M386.042 19.250 C 386.044 19.617,386.078 19.747,386.118 19.540 C 386.158 19.332,386.156 19.032,386.115 18.873 C 386.073 18.714,386.040 18.883,386.042 19.250 M317.477 20.211 C 317.547 20.281,320.187 20.318,323.344 20.294 L 329.083 20.250 323.217 20.167 C 319.990 20.121,317.407 20.141,317.477 20.211 M346.417 20.167 L 340.583 20.257 346.365 20.295 C 350.082 20.320,352.184 20.274,352.250 20.167 C 352.307 20.075,352.330 20.017,352.302 20.038 C 352.273 20.060,349.625 20.117,346.417 20.167 M185.573 24.500 C 185.573 26.929,185.596 27.923,185.625 26.708 C 185.653 25.494,185.653 23.506,185.625 22.292 C 185.596 21.077,185.573 22.071,185.573 24.500 M208.387 20.292 C 210.753 20.318,214.578 20.318,216.887 20.292 C 219.195 20.265,217.258 20.244,212.583 20.244 C 207.908 20.244,206.020 20.265,208.387 20.292 M313.245 30.833 C 313.245 36.746,313.266 39.165,313.292 36.208 C 313.317 33.252,313.317 28.415,313.292 25.458 C 313.266 22.502,313.245 24.921,313.245 30.833 M329.247 35.250 C 329.247 43.592,329.267 46.980,329.292 42.779 C 329.316 38.578,329.316 31.753,329.292 27.612 C 329.267 23.471,329.247 26.908,329.247 35.250 M340.413 35.167 C 340.413 43.462,340.433 46.856,340.458 42.708 C 340.483 38.560,340.483 31.773,340.458 27.625 C 340.433 23.477,340.413 26.871,340.413 35.167 M368.241 20.381 C 368.195 20.499,368.179 21.905,368.204 23.506 L 368.250 26.417 376.859 26.500 C 381.594 26.546,385.434 26.527,385.391 26.458 C 385.348 26.390,381.490 26.333,376.816 26.333 L 368.319 26.333 368.368 23.250 C 368.416 20.215,368.404 19.954,368.241 20.381 M373.053 20.292 C 375.420 20.318,379.245 20.318,381.553 20.292 C 383.861 20.265,381.925 20.244,377.250 20.244 C 372.575 20.244,370.686 20.265,373.053 20.292 M203.578 23.375 L 203.583 26.417 212.208 26.419 L 220.833 26.421 212.254 26.376 L 203.674 26.330 203.623 23.332 L 203.572 20.333 203.578 23.375 M162.906 27.083 L 162.917 28.583 166.500 28.588 L 170.083 28.593 166.548 28.543 L 163.013 28.494 162.954 27.038 L 162.895 25.583 162.906 27.083 M385.539 27.500 C 385.539 27.821,385.573 27.952,385.615 27.792 C 385.657 27.631,385.657 27.369,385.615 27.208 C 385.573 27.048,385.539 27.179,385.539 27.500 M221.064 30.833 C 221.064 31.979,221.091 32.448,221.123 31.875 C 221.156 31.302,221.156 30.365,221.123 29.792 C 221.091 29.219,221.064 29.688,221.064 30.833 M288.407 33.750 C 288.407 36.317,288.430 37.343,288.458 36.032 C 288.486 34.720,288.486 32.620,288.458 31.365 C 288.430 30.110,288.407 31.183,288.407 33.750 M259.372 39.865 C 259.351 45.704,259.390 50.515,259.458 50.558 C 259.572 50.628,259.570 43.024,259.455 33.083 C 259.430 30.975,259.393 34.027,259.372 39.865 M270.333 40.033 C 270.287 45.873,270.307 50.593,270.376 50.524 C 270.446 50.454,270.483 45.677,270.460 39.907 L 270.417 29.417 270.333 40.033 M385.539 34.167 C 385.539 34.487,385.573 34.619,385.615 34.458 C 385.657 34.298,385.657 34.035,385.615 33.875 C 385.573 33.715,385.539 33.846,385.539 34.167 M203.578 38.500 L 203.583 41.583 212.375 41.586 L 221.167 41.588 212.420 41.542 L 203.674 41.497 203.623 38.457 L 203.572 35.417 203.578 38.500 M368.244 38.500 L 368.250 41.583 377.042 41.586 L 385.833 41.588 377.087 41.542 L 368.341 41.497 368.290 38.457 L 368.239 35.417 368.244 38.500 M162.944 37.778 C 162.883 37.839,162.833 40.721,162.833 44.182 C 162.833 49.667,162.801 50.486,162.580 50.554 C 162.403 50.609,162.415 50.625,162.622 50.606 C 162.897 50.581,162.920 50.163,162.960 44.211 L 163.004 37.843 165.294 37.791 L 167.583 37.740 165.319 37.703 C 164.074 37.683,163.006 37.717,162.944 37.778 M277.396 40.000 C 277.396 41.054,277.423 41.485,277.456 40.958 C 277.490 40.431,277.490 39.569,277.456 39.042 C 277.423 38.515,277.396 38.946,277.396 40.000 M253.075 39.819 C 252.988 39.903,252.729 40.005,252.500 40.047 L 252.083 40.121 252.521 40.144 C 252.762 40.156,253.053 40.054,253.167 39.917 C 253.393 39.643,253.329 39.575,253.075 39.819 M245.642 40.042 C 245.726 40.126,245.972 40.167,246.189 40.133 C 246.523 40.080,246.499 40.057,246.036 39.980 C 245.705 39.925,245.550 39.950,245.642 40.042 M248.458 40.290 C 248.940 40.323,249.727 40.323,250.208 40.290 C 250.690 40.256,250.296 40.228,249.333 40.228 C 248.371 40.228,247.977 40.256,248.458 40.290 M292.708 41.782 C 292.869 41.823,293.131 41.823,293.292 41.782 C 293.452 41.740,293.321 41.705,293.000 41.705 C 292.679 41.705,292.548 41.740,292.708 41.782 M297.375 41.782 C 297.535 41.823,297.798 41.823,297.958 41.782 C 298.119 41.740,297.987 41.705,297.667 41.705 C 297.346 41.705,297.215 41.740,297.375 41.782 M221.567 46.000 C 221.567 47.421,221.593 48.002,221.624 47.292 C 221.655 46.581,221.655 45.419,221.624 44.708 C 221.593 43.998,221.567 44.579,221.567 46.000 M386.228 46.083 C 386.228 47.000,386.256 47.354,386.290 46.869 C 386.324 46.385,386.323 45.635,386.289 45.203 C 386.255 44.770,386.227 45.167,386.228 46.083 M279.500 46.719 C 279.500 46.748,279.744 46.991,280.042 47.260 L 280.583 47.750 280.094 47.208 C 279.638 46.703,279.500 46.590,279.500 46.719 M386.039 49.167 C 386.039 49.487,386.073 49.619,386.115 49.458 C 386.157 49.298,386.157 49.035,386.115 48.875 C 386.073 48.715,386.039 48.846,386.039 49.167 M357.210 50.333 C 357.270 50.553,359.020 50.584,371.681 50.585 L 386.083 50.586 371.759 50.542 C 360.565 50.508,357.403 50.453,357.288 50.291 C 357.180 50.138,357.159 50.149,357.210 50.333 M155.884 50.791 C 156.782 50.821,158.207 50.821,159.050 50.791 C 159.893 50.761,159.158 50.736,157.417 50.736 C 155.675 50.736,154.985 50.761,155.884 50.791 M178.717 50.791 C 179.708 50.821,181.283 50.821,182.217 50.791 C 183.152 50.761,182.342 50.737,180.417 50.737 C 178.492 50.737,177.727 50.762,178.717 50.791 M230.880 50.789 C 231.318 50.824,231.993 50.823,232.380 50.788 C 232.767 50.754,232.408 50.725,231.583 50.726 C 230.758 50.726,230.442 50.755,230.880 50.789 M235.458 50.789 C 235.848 50.824,236.485 50.824,236.875 50.789 C 237.265 50.754,236.946 50.725,236.167 50.725 C 235.387 50.725,235.069 50.754,235.458 50.789 M261.958 50.789 C 262.348 50.824,262.985 50.824,263.375 50.789 C 263.765 50.754,263.446 50.725,262.667 50.725 C 261.887 50.725,261.569 50.754,261.958 50.789 M266.547 50.789 C 266.985 50.824,267.660 50.823,268.047 50.788 C 268.434 50.754,268.075 50.725,267.250 50.726 C 266.425 50.726,266.109 50.755,266.547 50.789 M333.208 50.791 C 334.102 50.821,335.565 50.821,336.458 50.791 C 337.352 50.761,336.621 50.736,334.833 50.736 C 333.046 50.736,332.315 50.761,333.208 50.791 M292.125 51.284 C 292.331 51.324,292.669 51.324,292.875 51.284 C 293.081 51.245,292.912 51.212,292.500 51.212 C 292.087 51.212,291.919 51.245,292.125 51.284 M297.794 51.285 C 298.001 51.324,298.301 51.323,298.460 51.281 C 298.620 51.239,298.450 51.207,298.083 51.209 C 297.717 51.211,297.586 51.245,297.794 51.285 " stroke="none" fill="#5b5955" fill-rule="evenodd"></path></g></svg>